<svg width="42" height="36" viewBox="0 0 42 36" fill="none" xmlns="http://www.w3.org/2000/svg">
<path d="M23.6621 4.41016C27.5141 0.530168 33.7545 0.530066 37.6064 4.41016C41.4644 8.29628 41.4642 14.6011 37.6064 18.4873L23.666 32.5303L23.6445 32.5518L23.625 32.5732C23.4741 32.7378 23.3189 32.8997 23.1602 33.0596L22.2422 33.9854C21.8986 34.3315 21.4527 34.5014 21.0049 34.5H20.9951C20.5473 34.5014 20.1014 34.3315 19.7578 33.9854L18.8398 33.0596C18.6811 32.8997 18.5259 32.7378 18.375 32.5732L18.3555 32.5518L18.334 32.5303L4.39355 18.4873C0.535761 14.6011 0.535621 8.29628 4.39355 4.41016C8.2455 0.530066 14.4859 0.53017 18.3379 4.41016L19.9355 6.01855L21 7.09082L22.0645 6.01855L23.6621 4.41016Z" stroke="black" stroke-width="3"/>
</svg>
