<svg width="98" height="26" viewBox="0 0 98 26" fill="none" xmlns="http://www.w3.org/2000/svg">
<path d="M15.5346 12.0814C15.5086 9.21136 17.8994 7.81505 18.0087 7.75004C16.6547 5.78827 14.5561 5.52022 13.8186 5.49885C12.056 5.31452 10.3463 6.54697 9.44839 6.54697C8.53259 6.54697 7.14994 5.51666 5.65975 5.54694C3.74213 5.57633 1.94817 6.67966 0.964272 8.39299C-1.06625 11.8864 0.448128 17.0202 2.39353 19.844C3.36667 21.2269 4.5038 22.771 5.9922 22.7167C7.44833 22.6571 7.99226 21.7942 9.74948 21.7942C11.4906 21.7942 12.0013 22.7167 13.5193 22.682C15.0821 22.6571 16.066 21.2928 17.0051 19.8974C18.1297 18.3123 18.5813 16.7512 18.5992 16.6711C18.5625 16.6586 15.5642 15.5215 15.5346 12.0814ZM12.6671 3.64126C13.4503 2.66794 13.9862 1.34377 13.8374 0C12.7039 0.0498681 11.2863 0.77919 10.4699 1.73114C9.74768 2.56999 9.1025 3.94493 9.26917 5.23794C10.5425 5.33233 11.8499 4.59944 12.6671 3.64126ZM36.6078 22.5181H34.5728L33.4581 19.0372H29.5834L28.5215 22.5181H26.5403L30.3791 10.6673H32.7502L36.6078 22.5181ZM33.122 17.5767L32.1139 14.4822C32.0073 14.1661 31.8075 13.4217 31.5127 12.2498H31.4768C31.2981 12.9964 31.1093 13.7406 30.9105 14.4822L29.9203 17.5767H33.122ZM46.4799 18.1404C46.4799 19.5937 46.0848 20.7425 45.2944 21.5858C44.5865 22.3365 43.7075 22.7114 42.6581 22.7114C41.5255 22.7114 40.7119 22.3071 40.2163 21.4985H40.1805V26H38.27V16.786C38.27 15.8723 38.2458 14.9346 38.1992 13.9729H39.8794L39.986 15.3273H40.0219C40.659 14.3068 41.6259 13.7974 42.9234 13.7974C43.9378 13.7974 44.7846 14.1955 45.462 14.9925C46.1412 15.7904 46.4799 16.8394 46.4799 18.1404ZM44.5337 18.2099C44.5337 17.3782 44.3455 16.6925 43.9673 16.1528C43.5542 15.59 42.9996 15.3086 42.3042 15.3086C41.8329 15.3086 41.4045 15.4654 41.0219 15.7744C40.6384 16.086 40.3875 16.493 40.2701 16.997C40.2109 17.2321 40.1814 17.4245 40.1814 17.5758V19.0007C40.1814 19.6222 40.3731 20.1467 40.7567 20.5751C41.1402 21.0034 41.6384 21.2171 42.2513 21.2171C42.9709 21.2171 43.5309 20.9411 43.9315 20.3907C44.3329 19.8395 44.5337 19.1129 44.5337 18.2099ZM56.37 18.1404C56.37 19.5937 55.9748 20.7425 55.1836 21.5858C54.4766 22.3365 53.5975 22.7114 52.5482 22.7114C51.4156 22.7114 50.6019 22.3071 50.1073 21.4985H50.0714V26H48.161V16.786C48.161 15.8723 48.1368 14.9346 48.0902 13.9729H49.7704L49.877 15.3273H49.9128C50.5491 14.3068 51.5159 13.7974 52.8144 13.7974C53.8278 13.7974 54.6746 14.1955 55.3539 14.9925C56.0304 15.7904 56.37 16.8394 56.37 18.1404ZM54.4237 18.2099C54.4237 17.3782 54.2346 16.6925 53.8565 16.1528C53.4434 15.59 52.8905 15.3086 52.1943 15.3086C51.7246 15.3085 51.2701 15.4735 50.9111 15.7744C50.5276 16.086 50.2775 16.493 50.1602 16.997C50.1019 17.2321 50.0714 17.4245 50.0714 17.5758V19.0007C50.0714 19.6222 50.2632 20.1467 50.6449 20.5751C51.0285 21.0025 51.5267 21.2171 52.1414 21.2171C52.861 21.2171 53.421 20.9411 53.8216 20.3907C54.223 19.8395 54.4237 19.1129 54.4237 18.2099ZM67.4277 19.1948C67.4277 20.2028 67.0755 21.023 66.3685 21.6561C65.5916 22.348 64.51 22.6936 63.1202 22.6936C61.837 22.6936 60.8083 22.4478 60.0296 21.9553L60.4723 20.3729C61.311 20.8769 62.2313 21.1298 63.234 21.1298C63.9536 21.1298 64.5136 20.9678 64.916 20.6454C65.3165 20.323 65.5163 19.8903 65.5163 19.3506C65.5163 18.8697 65.3515 18.4646 65.0208 18.136C64.6919 17.8074 64.1427 17.5019 63.3756 17.2196C61.2877 16.4458 60.2447 15.3122 60.2447 13.8215C60.2447 12.8473 60.6103 12.0485 61.3424 11.4269C62.0718 10.8045 63.0449 10.4937 64.2618 10.4937C65.347 10.4937 66.2485 10.6816 66.968 11.0565L66.4904 12.6042C65.8183 12.2408 65.0584 12.0592 64.2081 12.0592C63.536 12.0592 63.0109 12.2239 62.6345 12.5516C62.4819 12.6858 62.3602 12.8511 62.2778 13.0363C62.1954 13.2215 62.1541 13.4222 62.1569 13.6247C62.1569 14.0931 62.3388 14.4805 62.7044 14.785C63.0225 15.0664 63.6005 15.371 64.4393 15.6996C65.4653 16.1101 66.2189 16.5901 66.7037 17.1404C67.1867 17.6889 67.4277 18.3755 67.4277 19.1948ZM73.7442 15.3977H71.6384V19.5465C71.6384 20.6018 72.0094 21.129 72.7531 21.129C73.0945 21.129 73.3777 21.0996 73.6017 21.0408L73.6546 22.4825C73.2782 22.6223 72.7827 22.6927 72.1689 22.6927C71.4144 22.6927 70.8248 22.4638 70.3991 22.007C69.9753 21.5493 69.762 20.7817 69.762 19.7033V15.3959H68.5075V13.9711H69.762V12.4065L71.6384 11.8437V13.9711H73.7442V15.3977ZM83.2454 18.1752C83.2454 19.4886 82.8672 20.567 82.1127 21.4103C81.3215 22.2786 80.2713 22.7114 78.9621 22.7114C77.7004 22.7114 76.6959 22.2955 75.9468 21.4638C75.1976 20.632 74.8231 19.5821 74.8231 18.3167C74.8231 16.9926 75.2084 15.9079 75.9817 15.0646C76.7532 14.2204 77.7945 13.7983 79.1037 13.7983C80.3653 13.7983 81.3806 14.2142 82.1468 15.0468C82.8798 15.8545 83.2454 16.8973 83.2454 18.1752ZM81.2632 18.2366C81.2632 17.4485 81.0939 16.7726 80.7507 16.2089C80.3501 15.5268 79.7775 15.1866 79.0356 15.1866C78.2676 15.1866 77.6843 15.5277 77.2837 16.2089C76.9405 16.7735 76.7712 17.4601 76.7712 18.2722C76.7712 19.0603 76.9405 19.7362 77.2837 20.299C77.6968 20.9811 78.2739 21.3213 79.0185 21.3213C79.7479 21.3213 80.3205 20.974 80.7336 20.2812C81.0858 19.7068 81.2632 19.0238 81.2632 18.2366ZM89.4552 15.6426C89.2565 15.6069 89.055 15.5893 88.8531 15.59C88.181 15.59 87.6613 15.842 87.2957 16.347C86.9776 16.7922 86.8181 17.355 86.8181 18.0345V22.5181H84.9085L84.9264 16.664C84.9264 15.6791 84.9022 14.7823 84.8547 13.9738H86.5188L86.5887 15.6087H86.6415C86.8431 15.0468 87.1612 14.5944 87.5967 14.2552C87.9954 13.9587 88.4797 13.7981 88.9776 13.7974C89.1541 13.7974 89.3136 13.8099 89.4552 13.8322V15.6426ZM97.9994 17.8412C98.0042 18.1298 97.9808 18.4182 97.9295 18.7023H92.1981C92.2205 19.5465 92.4974 20.1921 93.0297 20.6374C93.5127 21.0354 94.1373 21.2349 94.9043 21.2349C95.7529 21.2349 96.5271 21.1005 97.2234 20.8306L97.5227 22.1486C96.709 22.5012 95.7484 22.6766 94.64 22.6766C93.3066 22.6766 92.26 22.2866 91.4983 21.5074C90.7384 20.7282 90.3576 19.6819 90.3576 18.3693C90.3576 17.0807 90.7115 16.0077 91.4203 15.1519C92.1623 14.2382 93.165 13.7814 94.4267 13.7814C95.666 13.7814 96.6042 14.2382 97.2413 15.1519C97.7458 15.8777 97.9994 16.7753 97.9994 17.8412ZM96.1776 17.3488C96.1902 16.786 96.0656 16.2998 95.8067 15.8892C95.476 15.3612 94.9679 15.0976 94.2842 15.0976C93.6597 15.0976 93.1516 15.3549 92.7636 15.8714C92.4455 16.2819 92.2564 16.7744 92.1981 17.3479L96.1776 17.3488ZM32.4903 3.37678C32.4903 4.42491 32.174 5.21389 31.5422 5.74374C30.9571 6.23263 30.1255 6.47751 29.0484 6.47751C28.5144 6.47751 28.0574 6.45436 27.6747 6.40806V0.681234C28.1739 0.601089 28.7115 0.560126 29.2922 0.560126C30.3182 0.560126 31.0915 0.781861 31.613 1.22533C32.1973 1.72668 32.4903 2.44354 32.4903 3.37678ZM31.5001 3.40261C31.5001 2.72316 31.3191 2.20221 30.9571 1.83889C30.5951 1.47645 30.0664 1.29479 29.3701 1.29479C29.0744 1.29479 28.8226 1.31438 28.6138 1.35534V5.70901C28.7294 5.72682 28.9409 5.73484 29.2483 5.73484C29.9669 5.73484 30.5216 5.53625 30.9123 5.13909C31.303 4.74193 31.5001 4.1631 31.5001 3.40261ZM37.7404 4.29222C37.7404 4.93784 37.555 5.46679 37.184 5.88177C36.7951 6.30832 36.2798 6.52115 35.6364 6.52115C35.0163 6.52115 34.5226 6.31722 34.1543 5.90759C33.7869 5.49885 33.6032 4.98325 33.6032 4.36168C33.6032 3.71161 33.7923 3.1782 34.1722 2.76412C34.5522 2.35004 35.0629 2.14255 35.7063 2.14255C36.3264 2.14255 36.8246 2.34647 37.2019 2.75521C37.5603 3.15238 37.7404 3.66531 37.7404 4.29222ZM36.7664 4.3225C36.7664 3.93513 36.6822 3.60297 36.5146 3.32603C36.3175 2.9912 36.037 2.82378 35.6723 2.82378C35.295 2.82378 35.0083 2.9912 34.8111 3.32603C34.6427 3.60297 34.5593 3.94047 34.5593 4.33942C34.5593 4.72679 34.6436 5.05894 34.8111 5.33589C35.0146 5.67072 35.2977 5.83813 35.6633 5.83813C36.0218 5.83813 36.3031 5.66805 36.5056 5.32699C36.6795 5.0447 36.7664 4.70987 36.7664 4.3225ZM44.7801 2.22804L43.4584 6.42586H42.5981L42.0506 4.60301C41.9142 4.15699 41.8008 3.70432 41.711 3.24677H41.694C41.613 3.70622 41.4995 4.15942 41.3543 4.60301L40.7728 6.42586H39.9027L38.6598 2.22804H39.6249L40.1025 4.22365C40.2181 4.69562 40.3131 5.14532 40.3893 5.57098H40.4063C40.4762 5.22012 40.5918 4.77309 40.7549 4.23256L41.3543 2.22893H42.1196L42.694 4.18981C42.8329 4.66801 42.9458 5.1284 43.0327 5.57187H43.0587C43.1223 5.13998 43.2182 4.67959 43.3454 4.18981L43.858 2.22893H44.7801V2.22804ZM49.6485 6.42586H48.7094V4.02151C48.7094 3.28061 48.4262 2.91016 47.8581 2.91016C47.7291 2.9064 47.6009 2.93196 47.4834 2.98489C47.3658 3.03783 47.262 3.11673 47.1798 3.2156C47.0078 3.41599 46.9151 3.67177 46.919 3.93513V6.42497H45.9799V3.42754C45.9799 3.05888 45.9683 2.65904 45.9459 2.22626H46.7712L46.8151 2.88256H46.8411C46.9504 2.67863 47.1135 2.51033 47.3276 2.37586C47.5821 2.21913 47.8671 2.13988 48.1789 2.13988C48.5732 2.13988 48.9012 2.26633 49.1619 2.52012C49.4863 2.83091 49.6485 3.29486 49.6485 3.91109V6.42586ZM52.2382 6.42586H51.3V0.301881H52.2382V6.42586ZM57.767 4.29222C57.767 4.93784 57.5815 5.46679 57.2105 5.88177C56.8216 6.30832 56.3055 6.52115 55.663 6.52115C55.042 6.52115 54.5483 6.31722 54.1809 5.90759C53.8135 5.49885 53.6298 4.98325 53.6298 4.36168C53.6298 3.71161 53.8189 3.1782 54.1988 2.76412C54.5788 2.35004 55.0895 2.14255 55.732 2.14255C56.353 2.14255 56.8503 2.34647 57.2285 2.75521C57.5869 3.15238 57.767 3.66531 57.767 4.29222ZM56.7921 4.3225C56.7921 3.93513 56.7078 3.60297 56.5403 3.32603C56.344 2.9912 56.0627 2.82378 55.6988 2.82378C55.3207 2.82378 55.034 2.9912 54.8377 3.32603C54.6693 3.60297 54.5859 3.94047 54.5859 4.33942C54.5859 4.72679 54.6701 5.05894 54.8377 5.33589C55.0411 5.67072 55.3243 5.83813 55.6899 5.83813C56.0483 5.83813 56.3288 5.66805 56.5313 5.32699C56.7061 5.0447 56.7921 4.70987 56.7921 4.3225ZM62.312 6.42586H61.4687L61.3988 5.94232H61.3729C61.0843 6.32791 60.673 6.52115 60.139 6.52115C59.7402 6.52115 59.4176 6.39381 59.1748 6.1409C59.0657 6.0271 58.9803 5.89298 58.9235 5.74627C58.8668 5.59956 58.8398 5.44314 58.8441 5.28602C58.8441 4.77309 59.0592 4.38216 59.492 4.11145C59.9239 3.84074 60.5314 3.70805 61.3137 3.71429V3.63592C61.3137 3.08292 61.0216 2.80686 60.4365 2.80686C60.0198 2.80686 59.6524 2.91105 59.3352 3.11765L59.1443 2.50498C59.5368 2.26366 60.0216 2.14255 60.5933 2.14255C61.6972 2.14255 62.251 2.72138 62.251 3.87903V5.42494C62.251 5.84437 62.2716 6.17831 62.312 6.42586ZM61.337 4.98325V4.33586C60.3011 4.31805 59.7832 4.60034 59.7832 5.18183C59.7832 5.4009 59.8423 5.56475 59.9633 5.67428C60.0894 5.78537 60.2537 5.84403 60.4221 5.83813C60.6282 5.83813 60.8209 5.77313 60.9965 5.644C61.1031 5.5697 61.1898 5.47068 61.2491 5.35554C61.3084 5.2404 61.3386 5.11261 61.337 4.98325ZM67.6481 6.42586H66.8148L66.7709 5.75175H66.7449C66.4787 6.26468 66.0253 6.52115 65.3882 6.52115C64.8792 6.52115 64.4554 6.32257 64.1194 5.9254C63.7833 5.52824 63.6158 5.01264 63.6158 4.37949C63.6158 3.70004 63.7977 3.14971 64.1633 2.72939C64.5172 2.33757 64.9509 2.14166 65.4671 2.14166C66.0343 2.14166 66.4313 2.33134 66.6571 2.71158H66.675V0.301881H67.615V5.29493C67.615 5.70367 67.6257 6.08035 67.6481 6.42586ZM66.675 4.65555V3.95561C66.6838 3.79418 66.6554 3.63287 66.5921 3.48397C66.5287 3.33506 66.4321 3.20247 66.3094 3.09628C66.1362 2.9446 65.912 2.86295 65.6812 2.86742C65.3309 2.86742 65.0567 3.00545 64.855 3.28239C64.6552 3.55934 64.554 3.91287 64.554 4.34476C64.554 4.75974 64.6498 5.09634 64.8425 5.35548C65.0459 5.63154 65.3201 5.76957 65.6633 5.76957C65.9716 5.76957 66.218 5.65469 66.4053 5.42405C66.5863 5.21122 66.675 4.95475 66.675 4.65555ZM75.6797 4.29222C75.6797 4.93784 75.4942 5.46679 75.1233 5.88177C74.7344 6.30832 74.22 6.52115 73.5757 6.52115C72.9565 6.52115 72.4628 6.31722 72.0936 5.90759C71.7262 5.49885 71.5425 4.98325 71.5425 4.36168C71.5425 3.71161 71.7316 3.1782 72.1115 2.76412C72.4915 2.35004 73.0022 2.14255 73.6465 2.14255C74.2657 2.14255 74.7648 2.34647 75.1412 2.75521C75.4996 3.15238 75.6797 3.66531 75.6797 4.29222ZM74.7066 4.3225C74.7066 3.93513 74.6223 3.60297 74.4548 3.32603C74.2567 2.9912 73.9772 2.82378 73.6116 2.82378C73.2352 2.82378 72.9485 2.9912 72.7504 3.32603C72.582 3.60297 72.4986 3.94047 72.4986 4.33942C72.4986 4.72679 72.5829 5.05894 72.7504 5.33589C72.9538 5.67072 73.237 5.83813 73.6026 5.83813C73.961 5.83813 74.2433 5.66805 74.4458 5.32699C74.6188 5.0447 74.7066 4.70987 74.7066 4.3225ZM80.7292 6.42586H79.791V4.02151C79.791 3.28061 79.5078 2.91016 78.9388 2.91016C78.6601 2.91016 78.4352 3.01168 78.2613 3.2156C78.0875 3.41953 78.0006 3.65996 78.0006 3.93513V6.42497H77.0606V3.42754C77.0606 3.05888 77.0498 2.65904 77.0274 2.22626H77.8518L77.8957 2.88256H77.9217C78.0367 2.67441 78.2045 2.49974 78.4083 2.37586C78.6637 2.21913 78.9477 2.13988 79.2605 2.13988C79.6539 2.13988 79.9818 2.26633 80.2426 2.52012C80.5679 2.83091 80.7292 3.29486 80.7292 3.91109V6.42586ZM87.0492 2.92708H86.0152V4.96633C86.0152 5.4846 86.1989 5.74374 86.5627 5.74374C86.7311 5.74374 86.8709 5.72949 86.9811 5.70011L87.0053 6.40806C86.8198 6.47751 86.5761 6.51224 86.2759 6.51224C85.9049 6.51224 85.6164 6.40004 85.4076 6.17563C85.1979 5.95123 85.094 5.57365 85.094 5.04381V2.92708H84.4766V2.22804H85.094V1.45864L86.0143 1.18259V2.22715H87.0483L87.0492 2.92708ZM92.0207 6.42586H91.0807V4.03932C91.0807 3.28684 90.7976 2.91016 90.2303 2.91016C89.7948 2.91016 89.4973 3.12834 89.3343 3.56468C89.3034 3.67389 89.2886 3.78697 89.2903 3.9004V6.42497H88.3521V0.301881H89.2903V2.8318H89.3083C89.604 2.37141 90.0278 2.14166 90.5771 2.14166C90.966 2.14166 91.2877 2.26811 91.5431 2.5219C91.8612 2.83803 92.0207 3.30822 92.0207 3.92979V6.42586ZM97.149 4.12837C97.149 4.29578 97.1365 4.43648 97.1141 4.55136H94.2977C94.3102 4.96633 94.4446 5.28246 94.7054 5.50152C94.9437 5.69743 95.2511 5.79539 95.6274 5.79539C96.0441 5.79539 96.4241 5.72949 96.7664 5.59681L96.9133 6.24509C96.5128 6.41785 96.0414 6.50423 95.4957 6.50423C94.8416 6.50423 94.3263 6.31277 93.9536 5.92986C93.579 5.54694 93.3935 5.03312 93.3935 4.3884C93.3935 3.75525 93.5665 3.22807 93.915 2.80775C94.2788 2.35894 94.7708 2.13453 95.3918 2.13453C95.9993 2.13453 96.4608 2.35894 96.7726 2.80775C97.0244 3.16395 97.149 3.60475 97.149 4.12837ZM96.2529 3.88704C96.266 3.63537 96.2026 3.38561 96.071 3.17019C95.9079 2.91105 95.6597 2.78104 95.3237 2.78104C95.1773 2.77856 95.0325 2.81195 94.9022 2.87827C94.7718 2.94459 94.6599 3.04179 94.5763 3.16128C94.417 3.37256 94.3205 3.62399 94.2977 3.88704H96.2529Z" fill="white"/>
</svg>
