<svg width="17" height="11" viewBox="0 0 17 11" fill="none" xmlns="http://www.w3.org/2000/svg">
<path d="M16.6388 0.355193C16.1572 -0.118398 15.3763 -0.118398 14.8947 0.355193L7.04656 8.07238L2.10523 3.21351C1.62363 2.73992 0.842805 2.73992 0.361202 3.21351C-0.120401 3.6871 -0.120401 4.45487 0.361202 4.92846L6.16984 10.6402C6.1714 10.6417 6.17295 10.6432 6.17453 10.6448C6.23472 10.704 6.29961 10.7558 6.368 10.8002C6.84669 11.111 7.49718 11.0592 7.91859 10.6448C7.92331 10.6402 7.92812 10.6356 7.93277 10.6309L16.6388 2.07014C17.1204 1.59655 17.1204 0.828783 16.6388 0.355193Z" fill="black"/>
</svg>
