<svg width="36" height="36" viewBox="0 0 36 36" fill="none" xmlns="http://www.w3.org/2000/svg">
<path opacity="0.2" d="M0 6C0 2.68629 2.68629 0 6 0H36V36H6C2.68629 36 0 33.3137 0 30V6Z" fill="white"/>
<path d="M10.0881 13.9136C9.97683 13.7192 9.97055 13.4769 10.0716 13.2764L11.5512 10.3396C11.6566 10.1305 11.8618 10 12.0851 10H26.5145C26.8347 10 27.0392 10.3625 26.8882 10.6623L25.4081 13.6H13.7834L11.9697 17.2L10.0881 13.9136Z" fill="white"/>
<path d="M11.9697 17.2L10.1795 20.7531C10.1779 20.7562 10.1747 20.7583 10.1714 20.7585C10.1643 20.759 10.1602 20.7672 10.1639 20.7737C10.1656 20.7767 10.1655 20.7809 10.1639 20.784C10.1603 20.7913 10.1653 20.8 10.173 20.8C10.1766 20.8 10.1799 20.802 10.1818 20.8053L12.217 24.4L14.1012 27.6911C14.2111 27.8829 14.4072 28 14.6186 28H17.7902C18.0136 28 18.2188 27.8695 18.3241 27.6604L21.6094 21.1396C21.7148 20.9305 21.92 20.8 22.1433 20.8H25.2927C25.516 20.8 25.7212 20.6695 25.8265 20.4604L28.9493 14.2623C29.1003 13.9625 28.8958 13.6 28.5756 13.6H25.4081L23.5943 17.2H19.7194L16.0919 24.4H12.217L15.8445 17.2H11.9697Z" fill="white"/>
</svg>
