<svg width="94" height="24" viewBox="0 0 94 24" fill="none" xmlns="http://www.w3.org/2000/svg">
<path d="M26.5882 3.31621C26.6078 3.62751 26.5648 3.93957 26.4617 4.23397C26.3587 4.52836 26.1977 4.79913 25.9883 5.03027C25.6167 5.4046 25.1421 5.65986 24.6249 5.76351C24.1077 5.86717 23.5714 5.81453 23.0842 5.61232C22.5971 5.4101 22.1811 5.06745 21.8894 4.62802C21.5976 4.18859 21.4433 3.67226 21.446 3.14481C21.4429 2.79505 21.5096 2.44819 21.642 2.12446C21.7744 1.80073 21.97 1.50662 22.2173 1.25929C22.4646 1.01197 22.7587 0.816389 23.0825 0.683966C23.4062 0.551543 23.7531 0.484931 24.1028 0.488018C24.4611 0.491813 24.8134 0.579892 25.1312 0.745126C25.4371 0.87306 25.7033 1.08013 25.9026 1.34505L25.4741 1.77356C25.3118 1.56924 25.102 1.40775 24.863 1.30318C24.624 1.1986 24.363 1.15413 24.1028 1.17364C23.8437 1.16279 23.5855 1.21118 23.3479 1.31514C23.1102 1.4191 22.8995 1.57588 22.7316 1.77356C22.5256 1.95337 22.3642 2.17857 22.2601 2.4314C22.156 2.68423 22.112 2.95779 22.1316 3.23051C22.112 3.50323 22.156 3.77679 22.2601 4.02962C22.3642 4.28245 22.5256 4.50765 22.7316 4.68746C23.1048 5.04106 23.5898 5.25325 24.1028 5.28738C24.3746 5.29878 24.6456 5.25104 24.8972 5.14747C25.1487 5.04389 25.3748 4.88694 25.5598 4.68746C25.6969 4.55381 25.8055 4.39379 25.8792 4.21705C25.9528 4.04031 25.9899 3.85049 25.9883 3.65902H24.1028V2.9734H26.5882V3.31621Z" fill="white" stroke="white" stroke-width="0.2" stroke-miterlimit="10"/>
<path d="M30.5304 1.17365H28.2164V2.80201H30.359V3.40193H28.2164V5.03028H30.5304V5.7159H27.5308V0.57373H30.5304V1.17365Z" fill="white" stroke="white" stroke-width="0.2" stroke-miterlimit="10"/>
<path d="M33.3586 5.7159H32.673V1.17365H31.2161V0.57373H34.8156V1.17365H33.3586V5.7159Z" fill="white" stroke="white" stroke-width="0.2" stroke-miterlimit="10"/>
<path d="M37.301 5.7159V0.57373H37.9866V5.7159H37.301Z" fill="white" stroke="white" stroke-width="0.2" stroke-miterlimit="10"/>
<path d="M40.9004 5.7159H40.2148V1.17365H38.7578V0.57373H42.2716V1.17365H40.8147V5.7159H40.9004Z" fill="white" stroke="white" stroke-width="0.2" stroke-miterlimit="10"/>
<path d="M49.0423 5.03029C48.6707 5.40462 48.1961 5.65987 47.6789 5.76353C47.1617 5.86718 46.6254 5.81455 46.1382 5.61233C45.6511 5.41012 45.2351 5.06747 44.9434 4.62804C44.6516 4.18861 44.4973 3.67228 44.5 3.14483C44.5 2.4402 44.7799 1.76444 45.2782 1.26619C45.7764 0.767948 46.4522 0.488037 47.1568 0.488037C47.8614 0.488037 48.5372 0.767948 49.0355 1.26619C49.5337 1.76444 49.8136 2.4402 49.8136 3.14483C49.8234 3.49548 49.7598 3.84431 49.627 4.16898C49.4942 4.49366 49.295 4.78702 49.0423 5.03029ZM45.7856 4.60178C46.1491 4.96974 46.6398 5.18442 47.1568 5.20169C47.416 5.21255 47.6742 5.16415 47.9118 5.0602C48.1494 4.95624 48.3602 4.79946 48.5281 4.60178C48.9125 4.21432 49.1281 3.69061 49.128 3.14483C49.1476 2.87211 49.1037 2.59855 48.9996 2.34571C48.8955 2.09288 48.7341 1.86769 48.5281 1.68788C48.1645 1.31992 47.6738 1.10523 47.1568 1.08796C46.8977 1.07711 46.6395 1.1255 46.4019 1.22946C46.1643 1.33341 45.9535 1.4902 45.7856 1.68788C45.4012 2.07533 45.1855 2.59904 45.1857 3.14483C45.166 3.41755 45.21 3.69111 45.3141 3.94394C45.4182 4.19677 45.5796 4.42197 45.7856 4.60178Z" fill="white" stroke="white" stroke-width="0.2" stroke-miterlimit="10"/>
<path d="M50.7562 5.7159V0.57373H51.5276L54.0129 4.60177V0.57373H54.6986V5.7159H54.0129L51.3561 1.51646V5.7159H50.7562Z" fill="white" stroke="white" stroke-width="0.2" stroke-miterlimit="10"/>
<path d="M44.3287 13.2579C43.8418 13.247 43.3577 13.3349 42.9057 13.5163C42.4537 13.6976 42.043 13.9687 41.6986 14.313C41.3542 14.6574 41.0832 15.0681 40.9019 15.5201C40.7205 15.9721 40.6326 16.4562 40.6435 16.9431C40.6399 17.4281 40.7327 17.909 40.9166 18.3577C41.1005 18.8065 41.3718 19.2142 41.7148 19.5571C42.0577 19.9001 42.4654 20.1714 42.9142 20.3553C43.3629 20.5392 43.8438 20.632 44.3287 20.6284C44.8157 20.6393 45.2998 20.5514 45.7518 20.37C46.2038 20.1887 46.6144 19.9176 46.9588 19.5732C47.3032 19.2288 47.5743 18.8182 47.7556 18.3662C47.937 17.9142 48.0249 17.4301 48.014 16.9431C48.0321 16.4543 47.9492 15.967 47.7704 15.5117C47.5916 15.0564 47.3208 14.6428 46.9749 14.2969C46.629 13.9511 46.2155 13.6803 45.7602 13.5015C45.3049 13.3227 44.8176 13.2398 44.3287 13.2579ZM44.3287 19.0857C43.768 19.0417 43.2444 18.7878 42.8625 18.3748C42.4806 17.9618 42.2685 17.4199 42.2685 16.8574C42.2685 16.2949 42.4806 15.7531 42.8625 15.3401C43.2444 14.927 43.768 14.6732 44.3287 14.6292C44.6131 14.631 44.894 14.6912 45.1541 14.8061C45.4142 14.9209 45.6479 15.088 45.8408 15.2969C46.0336 15.5058 46.1815 15.7522 46.2752 16.0206C46.3689 16.289 46.4065 16.5739 46.3856 16.8574C46.3992 17.1393 46.3565 17.4211 46.2601 17.6864C46.1636 17.9516 46.0154 18.1951 45.824 18.4025C45.6325 18.6098 45.4017 18.7771 45.145 18.8944C44.8883 19.0117 44.6108 19.0767 44.3287 19.0857ZM36.3584 13.2579C35.8714 13.247 35.3874 13.3349 34.9353 13.5163C34.4833 13.6976 34.0727 13.9687 33.7283 14.313C33.3839 14.6574 33.1128 15.0681 32.9315 15.5201C32.7501 15.9721 32.6623 16.4562 32.6731 16.9431C32.6695 17.4281 32.7623 17.909 32.9462 18.3577C33.1301 18.8065 33.4015 19.2142 33.7444 19.5571C34.0873 19.9001 34.495 20.1714 34.9438 20.3553C35.3926 20.5392 35.8734 20.632 36.3584 20.6284C36.8453 20.6393 37.3294 20.5514 37.7814 20.37C38.2335 20.1887 38.6441 19.9176 38.9885 19.5732C39.3329 19.2288 39.6039 18.8182 39.7853 18.3662C39.9666 17.9142 40.0545 17.4301 40.0436 16.9431C40.0617 16.4543 39.9788 15.967 39.8 15.5117C39.6213 15.0564 39.3505 14.6428 39.0046 14.2969C38.6587 13.9511 38.2451 13.6803 37.7898 13.5015C37.3345 13.3227 36.8472 13.2398 36.3584 13.2579ZM36.3584 19.0857C35.7976 19.0417 35.274 18.7878 34.8921 18.3748C34.5103 17.9618 34.2982 17.4199 34.2982 16.8574C34.2982 16.2949 34.5103 15.7531 34.8921 15.3401C35.274 14.927 35.7976 14.6732 36.3584 14.6292C36.6427 14.631 36.9236 14.6912 37.1837 14.8061C37.4438 14.9209 37.6775 15.088 37.8704 15.2969C38.0632 15.5058 38.2111 15.7522 38.3048 16.0206C38.3986 16.289 38.4361 16.5739 38.4152 16.8574C38.4288 17.1393 38.3861 17.4211 38.2897 17.6864C38.1933 17.9516 38.045 18.1951 37.8536 18.4025C37.6622 18.6098 37.4314 18.7771 37.1747 18.8944C36.918 19.0117 36.6405 19.0767 36.3584 19.0857ZM26.8454 14.3721V15.9147H30.5306C30.4775 16.6501 30.1752 17.3455 29.6735 17.8859C29.3044 18.2566 28.8626 18.5469 28.3759 18.7386C27.8892 18.9304 27.3681 19.0194 26.8454 19C26.3076 19.0054 25.7744 18.9019 25.2776 18.696C24.7808 18.4901 24.3308 18.1858 23.9546 17.8016C23.5784 17.4174 23.2837 16.9611 23.0883 16.4601C22.8928 15.9591 22.8007 15.4238 22.8173 14.8863C22.8079 14.3507 22.905 13.8185 23.103 13.3208C23.3011 12.823 23.596 12.3696 23.9708 11.9868C24.3456 11.604 24.7927 11.2996 25.2862 11.0911C25.7797 10.8827 26.3097 10.7744 26.8454 10.7725C27.8932 10.7825 28.9005 11.1793 29.6735 11.8867L30.7877 10.7725C29.7537 9.77324 28.369 9.21937 26.9311 9.22988C25.426 9.23979 23.9841 9.83626 22.9118 10.8925C21.8396 11.9487 21.2215 13.3815 21.189 14.8863C21.2215 16.391 21.8396 17.8238 22.9118 18.88C23.9841 19.9363 25.426 20.5328 26.9311 20.5427C27.6682 20.5836 28.405 20.4585 29.0873 20.1767C29.7697 19.8949 30.38 19.4635 30.8734 18.9143C31.778 17.9365 32.2694 16.6467 32.2446 15.3148C32.2628 14.998 32.2339 14.6803 32.1589 14.3721H26.8454ZM65.7545 15.5719C65.5439 14.9137 65.1338 14.3373 64.5809 13.9227C64.0281 13.5081 63.36 13.2758 62.6692 13.2579C62.1975 13.2601 61.7314 13.3589 61.2994 13.5483C60.8675 13.7376 60.4789 14.0134 60.1577 14.3587C59.8365 14.7041 59.5894 15.1115 59.4317 15.556C59.2741 16.0005 59.2092 16.4726 59.241 16.9431C59.2278 17.4235 59.3113 17.9015 59.4864 18.349C59.6615 18.7964 59.9248 19.2041 60.2605 19.5479C60.5963 19.8916 60.9977 20.1644 61.4409 20.35C61.8841 20.5356 62.3601 20.6303 62.8406 20.6284C63.4377 20.6342 64.0265 20.4878 64.5513 20.2028C65.0762 19.9179 65.5198 19.504 65.8402 19L64.6403 18.143C64.4558 18.4562 64.1927 18.7159 63.877 18.8962C63.5614 19.0766 63.2041 19.1715 62.8406 19.1714C62.4629 19.1907 62.0883 19.0944 61.7667 18.8954C61.4452 18.6963 61.1919 18.404 61.0408 18.0573L65.9259 16.0004L65.7545 15.5719ZM60.7837 16.7717C60.7659 16.2416 60.951 15.7247 61.3015 15.3265C61.6519 14.9283 62.1411 14.6789 62.6692 14.6292C62.9464 14.62 63.2209 14.687 63.4627 14.823C63.7044 14.959 63.9043 15.1588 64.0404 15.4005L60.7837 16.7717ZM56.7557 20.2856H58.384V9.57269H56.7557V20.2856ZM54.1846 14.0292C53.6663 13.4947 52.9578 13.1867 52.2134 13.1722C51.266 13.2163 50.3721 13.624 49.7177 14.3104C49.0632 14.9968 48.6986 15.909 48.6996 16.8574C48.6929 17.3248 48.7786 17.7889 48.9518 18.223C49.1249 18.6571 49.3821 19.0528 49.7086 19.3872C50.0351 19.7217 50.4245 19.9884 50.8543 20.172C51.2842 20.3555 51.746 20.4524 52.2134 20.457C52.5711 20.4597 52.9251 20.3845 53.2507 20.2365C53.5763 20.0885 53.8658 19.8712 54.0989 19.5999H54.1846V20.1141C54.2327 20.5873 54.1062 21.0617 53.8287 21.448C53.5512 21.8342 53.1421 22.1057 52.6783 22.2111C52.2145 22.3165 51.7282 22.2486 51.3111 22.0202C50.8939 21.7918 50.5747 21.4187 50.4136 20.9712L49.0424 21.5711C49.3154 22.2082 49.7697 22.7509 50.3487 23.1318C50.9278 23.5128 51.606 23.7151 52.2991 23.7137C54.1846 23.7137 55.7272 22.5995 55.7272 19.9427V13.4293H54.1846V14.0292ZM52.2991 19.0857C51.7383 19.0417 51.2148 18.7878 50.8329 18.3748C50.451 17.9618 50.2389 17.4199 50.2389 16.8574C50.2389 16.2949 50.451 15.7531 50.8329 15.3401C51.2148 14.927 51.7383 14.6732 52.2991 14.6292C52.5767 14.6405 52.8492 14.7078 53.1002 14.8271C53.3512 14.9463 53.5754 15.1151 53.7596 15.3232C53.9437 15.5314 54.0838 15.7745 54.1716 16.0382C54.2593 16.3018 54.2929 16.5805 54.2703 16.8574C54.2929 17.1344 54.2593 17.413 54.1716 17.6767C54.0838 17.9403 53.9437 18.1835 53.7596 18.3916C53.5754 18.5998 53.3512 18.7685 53.1002 18.8878C52.8492 19.0071 52.5767 19.0744 52.2991 19.0857ZM73.2106 9.57269H69.354V20.2856H70.9823V16.2575H73.2106C74.0971 16.2575 74.9472 15.9054 75.5741 15.2785C76.2009 14.6517 76.553 13.8016 76.553 12.9151C76.553 12.0286 76.2009 11.1785 75.5741 10.5517C74.9472 9.92484 74.0971 9.57269 73.2106 9.57269ZM73.2963 14.7149H70.9823V11.0296H73.2963C73.7819 11.0291 74.2489 11.216 74.6001 11.5512C74.9514 11.8865 75.1597 12.3443 75.1818 12.8294C75.1629 13.3234 74.9582 13.7921 74.6086 14.1417C74.259 14.4913 73.7903 14.696 73.2963 14.7149ZM83.1521 13.1722C82.5714 13.1258 81.9901 13.2565 81.4852 13.5472C80.9803 13.838 80.5754 14.275 80.324 14.8006L81.7809 15.4005C81.9232 15.1449 82.1366 14.936 82.3951 14.7991C82.6537 14.6622 82.9464 14.6032 83.2378 14.6292C83.644 14.5986 84.0467 14.7231 84.3647 14.9775C84.6828 15.2319 84.8926 15.5975 84.9519 16.0004V16.0861C84.4536 15.809 83.8937 15.6616 83.3236 15.6576C81.7809 15.6576 80.2382 16.5146 80.2382 18.0573C80.2524 18.3902 80.3328 18.7169 80.4745 19.0185C80.6163 19.32 80.8166 19.5904 81.0639 19.8137C81.3112 20.0371 81.6004 20.209 81.9148 20.3194C82.2292 20.4298 82.5624 20.4766 82.895 20.457C83.2964 20.4703 83.6947 20.3833 84.0539 20.2037C84.4131 20.0241 84.7218 19.7576 84.9519 19.4285H85.0376V20.2856H86.5803V16.1718C86.5176 15.3217 86.1228 14.5304 85.4813 13.9691C84.8398 13.4077 84.0031 13.1215 83.1521 13.1722ZM82.9807 19.0857C82.4665 19.0857 81.6952 18.8286 81.6952 18.143C81.6952 17.286 82.6379 17.0288 83.4093 17.0288C83.9147 17.0305 84.4131 17.1478 84.8662 17.3717C84.801 17.8323 84.5768 18.2557 84.2326 18.5687C83.8883 18.8817 83.4455 19.0645 82.9807 19.0857ZM91.9795 13.4293L90.1798 18.0573H90.0941L88.2086 13.4293H86.4946L89.3228 19.9427L87.6944 23.5423H89.3228L93.6936 13.4293H91.9795ZM77.5815 20.2856H79.2098V9.57269H77.5815V20.2856Z" fill="white"/>
<path d="M0.877396 3.14478C0.766598 3.28956 0.686625 3.45551 0.642406 3.63238C0.598188 3.80926 0.59066 3.99331 0.620287 4.17321V20.0282C0.62853 20.3977 0.748001 20.7561 0.963098 21.0567L1.0488 21.1424L9.8762 12.1436V11.9722L0.877396 3.14478Z" fill="url(#paint0_linear_0_493)"/>
<path d="M12.7043 15.1433L9.79041 12.2294V11.9722L12.7043 9.05835L12.79 9.14405L16.3038 11.1152C17.3323 11.7151 17.3323 12.6579 16.3038 13.1721L12.7043 15.1433Z" fill="url(#paint1_linear_0_493)"/>
<path d="M12.79 15.0576L9.79042 12.058L0.877319 21.0568C1.22013 21.3996 1.73435 21.3996 2.41997 21.1425L12.79 15.0576Z" fill="url(#paint2_linear_0_493)"/>
<path d="M12.79 9.0583L2.33427 3.1448C2.12 2.98576 1.8566 2.90719 1.59022 2.92286C1.32384 2.93853 1.07146 3.04744 0.877319 3.2305L9.79042 12.0579L12.79 9.0583Z" fill="url(#paint3_linear_0_493)"/>
<defs>
<linearGradient id="paint0_linear_0_493" x1="8.99521" y1="276.528" x2="-5.22979" y2="280.301" gradientUnits="userSpaceOnUse">
<stop stop-color="#00A0FF"/>
<stop offset="0.007" stop-color="#00A1FF"/>
<stop offset="0.26" stop-color="#00BEFF"/>
<stop offset="0.512" stop-color="#00D2FF"/>
<stop offset="0.76" stop-color="#00DFFF"/>
<stop offset="1" stop-color="#00E3FF"/>
</linearGradient>
<linearGradient id="paint1_linear_0_493" x1="17.6142" y1="284.65" x2="0.291097" y2="284.65" gradientUnits="userSpaceOnUse">
<stop stop-color="#FFE000"/>
<stop offset="0.409" stop-color="#FFBD00"/>
<stop offset="0.775" stop-color="#FFA500"/>
<stop offset="1" stop-color="#FF9C00"/>
</linearGradient>
<linearGradient id="paint2_linear_0_493" x1="11.158" y1="286.245" x2="-0.430784" y2="305.388" gradientUnits="userSpaceOnUse">
<stop stop-color="#FF3A44"/>
<stop offset="1" stop-color="#C31162"/>
</linearGradient>
<linearGradient id="paint3_linear_0_493" x1="-1.40991" y1="270.608" x2="3.64192" y2="279.199" gradientUnits="userSpaceOnUse">
<stop stop-color="#32A071"/>
<stop offset="0.068" stop-color="#2DA771"/>
<stop offset="0.476" stop-color="#15CF74"/>
<stop offset="0.801" stop-color="#06E775"/>
<stop offset="1" stop-color="#00F076"/>
</linearGradient>
</defs>
</svg>
