<svg width="1680" height="260" viewBox="0 0 1680 260" fill="none" xmlns="http://www.w3.org/2000/svg">
<path d="M0 259L14.6098 239.471C14.9475 239.019 15.5914 238.936 16.0327 239.287L22.4689 244.402C22.7037 244.589 23.0099 244.66 23.303 244.597L40.1967 240.935C40.4575 240.878 40.7301 240.928 40.9538 241.074L60.2132 253.598C60.6154 253.86 61.1468 253.799 61.4793 253.453L73.1326 241.328C73.4126 241.036 73.8406 240.942 74.2171 241.089L85.7836 245.602C86.0961 245.724 86.4489 245.681 86.7231 245.488L106.384 231.637C106.517 231.543 106.67 231.484 106.831 231.463L119.049 229.874C119.198 229.854 119.34 229.802 119.466 229.72L128.976 223.536C129.257 223.353 129.611 223.323 129.919 223.457L136.723 226.407C136.928 226.495 137.157 226.513 137.373 226.457L149.453 223.315C149.633 223.268 149.822 223.272 150 223.327L166.89 228.557C167.258 228.671 167.659 228.564 167.92 228.28L179.967 215.224C180.106 215.073 180.289 214.968 180.49 214.925L189.934 212.877C190.189 212.822 190.413 212.669 190.557 212.45L197.432 202.018C197.721 201.579 198.301 201.439 198.758 201.697L210.169 208.128C210.46 208.292 210.813 208.3 211.111 208.149L217.574 204.88C217.973 204.679 218.457 204.766 218.76 205.095L225.658 212.571C225.79 212.714 225.962 212.816 226.152 212.863L243.259 217.101C243.495 217.16 243.745 217.13 243.961 217.017L256.222 210.639C256.283 210.607 256.348 210.581 256.415 210.563L273.727 205.737C273.954 205.674 274.196 205.693 274.41 205.791L299.154 217.054C299.35 217.144 299.57 217.167 299.78 217.122L309.395 215.037C309.535 215.007 309.679 215.007 309.819 215.037L319.242 217.08C319.565 217.15 319.902 217.056 320.142 216.828L339.581 198.393C339.872 198.117 340.299 198.042 340.667 198.201L347.051 200.969C347.427 201.132 347.858 201.054 348.149 200.766C356.768 192.202 373.596 176.288 375.589 177.584C377.516 178.837 382.645 181.842 385.331 183.399C385.591 183.549 385.903 183.574 386.184 183.467L395.697 179.859C395.825 179.81 395.942 179.735 396.04 179.639L410.827 165.216C411.013 165.034 411.264 164.932 411.525 164.932H425.937C426.198 164.932 426.449 165.034 426.636 165.216L441.28 179.501C441.466 179.683 441.717 179.785 441.978 179.785H456.176C456.557 179.785 456.904 180.001 457.073 180.342L463.639 193.625C463.981 194.317 464.945 194.377 465.37 193.732L471.626 184.24C471.864 183.879 472.306 183.712 472.723 183.825L481.674 186.25C481.988 186.335 482.324 186.262 482.575 186.054L496.988 174.078C497.246 173.863 497.595 173.792 497.917 173.89L509.8 177.496C509.99 177.554 510.192 177.554 510.381 177.496L522.291 173.882C522.598 173.789 522.931 173.848 523.186 174.042L537.619 184.993C537.864 185.178 538.179 185.241 538.476 185.164L550.186 182.118C550.504 182.035 550.844 182.114 551.092 182.33L555.488 186.142C555.67 186.299 555.903 186.386 556.144 186.386H570.729C570.904 186.386 571.077 186.432 571.229 186.52L585.991 195.053C586.143 195.141 586.316 195.188 586.492 195.188H598.396C598.72 195.188 599.024 195.345 599.211 195.609L603.411 201.526C603.73 201.976 604.352 202.082 604.803 201.765L613.88 195.37C614.048 195.251 614.25 195.188 614.456 195.188H624.022C624.198 195.188 624.37 195.141 624.522 195.053L631.798 190.848C631.868 190.807 631.943 190.775 632.02 190.753L646.825 186.474C647.023 186.417 647.235 186.422 647.43 186.49L659.575 190.702C659.735 190.758 659.906 190.772 660.073 190.743L672.423 188.601C672.479 188.591 672.536 188.586 672.594 188.586H687.627C687.698 188.586 687.769 188.594 687.839 188.609L697.396 190.681C697.704 190.748 698.025 190.665 698.263 190.459L712.701 177.94C712.957 177.718 713.308 177.641 713.634 177.735L728.202 181.946C728.293 181.972 728.386 181.985 728.48 181.985H743.268C743.462 181.985 743.651 182.041 743.814 182.147L753.316 188.326C753.569 188.491 753.883 188.532 754.17 188.439L763.716 185.335C763.816 185.302 763.921 185.286 764.026 185.286H776.348C776.485 185.286 776.621 185.314 776.746 185.368L786.535 189.612C786.649 189.661 786.77 189.689 786.894 189.694L814.375 190.777C814.538 190.784 814.696 190.829 814.836 190.911L829.274 199.256C829.622 199.457 830.058 199.43 830.378 199.187L839.824 192.021C839.94 191.933 840.074 191.871 840.216 191.84L865.378 186.386L877.817 185.307C877.981 185.293 878.138 185.239 878.276 185.149L887.969 178.846C888.131 178.741 888.321 178.685 888.514 178.685H897.83C898.166 178.685 898.48 178.516 898.665 178.235L910.761 159.88C910.946 159.6 911.26 159.431 911.596 159.431H925.94C926.163 159.431 926.379 159.356 926.555 159.219L938.739 149.711C938.892 149.592 939.075 149.52 939.268 149.503L951.295 148.46C951.532 148.44 951.753 148.336 951.92 148.167L958.658 141.351C959.011 140.994 959.574 140.954 959.974 141.257L969.158 148.225C969.332 148.357 969.544 148.429 969.762 148.429H981.648C981.944 148.429 982.225 148.559 982.415 148.786L986.662 153.849C986.969 154.216 987.492 154.313 987.911 154.082L1014.88 139.204C1015.03 139.121 1015.15 139 1015.24 138.852L1025.04 122.92C1025.18 122.698 1025.4 122.538 1025.65 122.474L1040.21 118.792C1040.39 118.747 1040.55 118.652 1040.68 118.52L1049.69 109.246C1050.16 108.763 1050.96 108.873 1051.28 109.466L1055.08 116.461C1055.4 117.044 1056.18 117.163 1056.66 116.699L1060.56 112.892C1060.71 112.749 1060.89 112.654 1061.1 112.621L1070.76 111.051C1070.88 111.031 1070.99 110.99 1071.1 110.93L1078.11 106.873C1078.39 106.714 1078.72 106.695 1079.01 106.821L1085.26 109.528C1085.76 109.746 1086.34 109.518 1086.57 109.018L1109 58.7612L1125.77 18.7729C1126.13 17.932 1127.33 17.9632 1127.64 18.8214L1141.37 57.0164C1141.64 57.7652 1142.63 57.9149 1143.11 57.2786L1159.28 35.7374C1159.56 35.3675 1160.06 35.2364 1160.48 35.4204L1166.86 38.184C1167.18 38.3227 1167.55 38.2848 1167.83 38.084L1177.12 31.5371C1177.38 31.3596 1177.7 31.3082 1177.99 31.3977L1189.49 34.8873C1189.92 35.0171 1190.38 34.8474 1190.62 34.4717L1205.02 12.1001C1205.27 11.7182 1205.74 11.5499 1206.17 11.6903L1220.22 16.2595C1220.5 16.3505 1220.81 16.3136 1221.06 16.1587L1237.86 5.75348C1238.2 5.54011 1238.64 5.55575 1238.97 5.79309L1253.01 15.939C1253.39 16.2108 1253.9 16.188 1254.25 15.884L1260.7 10.295C1261.04 10.0029 1261.53 9.96917 1261.9 10.2123L1270.97 16.1102C1271.25 16.2931 1271.6 16.3228 1271.91 16.1894L1286.28 9.9617C1286.51 9.85904 1286.78 9.85191 1287.02 9.94182L1304.11 16.29C1304.3 16.3634 1304.52 16.3725 1304.72 16.3159L1321.47 11.6478C1321.89 11.5311 1322.34 11.698 1322.58 12.0608L1339.69 38.0321C1339.85 38.2707 1340.1 38.4307 1340.38 38.4715L1354.74 40.5458C1355.01 40.5853 1355.26 40.7361 1355.41 40.9626L1367.27 57.9286C1367.59 58.3863 1368.23 58.4933 1368.68 58.1663L1390.16 42.6431C1390.49 42.4094 1390.92 42.3903 1391.26 42.5947L1399.99 47.7968C1400.46 48.0797 1401.08 47.9241 1401.36 47.4494L1410.64 31.8573C1410.85 31.4962 1411.27 31.308 1411.68 31.3863L1430.9 35.0318C1431.16 35.0798 1431.42 35.0282 1431.64 34.8876L1438.42 30.4765C1438.72 30.2785 1439.11 30.2611 1439.43 30.4312L1461.21 41.9706C1461.54 42.1469 1461.95 42.1214 1462.25 41.9045L1471.84 35.1528C1471.88 35.1221 1471.93 35.0949 1471.98 35.0715L1501.94 20.4555C1502.21 20.3275 1502.51 20.3206 1502.78 20.4369L1512.32 24.5721C1512.44 24.6265 1512.58 24.6546 1512.71 24.6546H1527.53C1527.66 24.6546 1527.8 24.6265 1527.92 24.5721L1537.36 20.4801C1537.69 20.3398 1538.06 20.3804 1538.35 20.587L1552.69 30.9511C1552.95 31.1421 1553.3 31.1922 1553.6 31.0854L1565.71 26.8876C1565.77 26.8659 1565.83 26.8382 1565.89 26.8047L1583.56 16.403L1605.77 5.70478C1606.15 5.52231 1606.61 5.59628 1606.91 5.88987L1621.04 19.6778C1621.38 20.0122 1621.92 20.0566 1622.31 19.7836L1634.23 11.5138C1634.29 11.4727 1634.35 11.4382 1634.42 11.4108L1659.51 1.07535C1659.64 1.0256 1659.77 1 1659.9 1H1680" stroke="white" stroke-width="2"/>
</svg>
