<svg width="45" height="40" viewBox="0 0 45 40" fill="none" xmlns="http://www.w3.org/2000/svg">
<path d="M0.208643 8.69685C-0.0548775 8.26499 -0.0697412 7.72655 0.169554 7.28092L3.67395 0.754713C3.92344 0.290078 4.40943 0 4.93836 0H39.1133C39.8716 0 40.3561 0.805555 39.9984 1.4717L36.4928 8H8.96078L4.665 16L0.208643 8.69685Z" fill="url(#paint0_linear_0_232)"/>
<path d="M4.665 16L0.425173 23.8958C0.421457 23.9027 0.413844 23.9073 0.405982 23.9078C0.389213 23.9088 0.379539 23.9272 0.388197 23.9416C0.392264 23.9483 0.391997 23.9576 0.388274 23.9645C0.379647 23.9806 0.39141 24 0.409699 24C0.418217 24 0.426139 24.0044 0.430528 24.0117L5.25079 32L9.71346 39.3135C9.97357 39.7398 10.438 40 10.9388 40H18.4506C18.9795 40 19.4655 39.7099 19.715 39.2453L27.496 24.7547C27.7455 24.2901 28.2315 24 28.7604 24H36.2195C36.7484 24 37.2344 23.7099 37.4839 23.2453L44.8799 9.4717C45.2376 8.80555 44.7532 8 43.9948 8H36.4928L32.1971 16H23.0197L14.4281 32H5.25079L13.8424 16H4.665Z" fill="url(#paint1_linear_0_232)"/>
<defs>
<linearGradient id="paint0_linear_0_232" x1="-4.31409" y1="-3.87087e-08" x2="15.0544" y2="39.7456" gradientUnits="userSpaceOnUse">
<stop stop-color="#016AFF"/>
<stop offset="0.299365" stop-color="#0592E7"/>
<stop offset="0.557535" stop-color="#695CE9"/>
<stop offset="0.761114" stop-color="#E36196"/>
<stop offset="1" stop-color="#FECB33"/>
</linearGradient>
<linearGradient id="paint1_linear_0_232" x1="-4.31409" y1="-3.87087e-08" x2="15.0544" y2="39.7456" gradientUnits="userSpaceOnUse">
<stop stop-color="#016AFF"/>
<stop offset="0.299365" stop-color="#0592E7"/>
<stop offset="0.557535" stop-color="#695CE9"/>
<stop offset="0.761114" stop-color="#E36196"/>
<stop offset="1" stop-color="#FECB33"/>
</linearGradient>
</defs>
</svg>
