<svg width="140" height="34" viewBox="0 0 140 34" fill="none" xmlns="http://www.w3.org/2000/svg">
<g clip-path="url(#clip0_0_452)">
<path d="M36.7845 11.9698H50.9575V14.5668H45.3855V29.1688H42.3195V14.5668H36.7715V11.9688H36.7835L36.7845 11.9698ZM50.3525 16.7148H52.9725V19.1187H53.0215C53.1085 18.7787 53.2685 18.4508 53.5035 18.1348C54.006 17.4575 54.6861 16.9324 55.4685 16.6178C55.8659 16.4603 56.289 16.3779 56.7165 16.3748C57.0365 16.3748 57.2725 16.3867 57.3965 16.3997C57.5195 16.4117 57.6425 16.4358 57.7785 16.4478V19.0938C57.5778 19.0586 57.376 19.0303 57.1735 19.0088C56.9724 18.985 56.77 18.9729 56.5675 18.9727C56.0975 18.9727 55.6535 19.0698 55.2335 19.2528C54.8135 19.4338 54.4545 19.7127 54.1465 20.0658C53.8179 20.4604 53.5662 20.9133 53.4045 21.4007C53.2195 21.9347 53.1325 22.5407 53.1325 23.2337V29.1567H50.3405V16.7148H50.3525ZM70.6175 29.1698H67.8745V27.4338H67.8245C67.4785 28.0658 66.9725 28.5638 66.2925 28.9398C65.6125 29.3158 64.9205 29.5098 64.2165 29.5098C62.5485 29.5098 61.3365 29.1097 60.5965 28.2957C59.8545 27.4827 59.4835 26.2568 59.4835 24.6178V16.7157H62.2765V24.3507C62.2765 25.4438 62.4865 26.2207 62.9195 26.6698C63.3395 27.1188 63.9445 27.3498 64.7105 27.3498C65.3035 27.3498 65.7855 27.2648 66.1805 27.0818C66.5765 26.8998 66.8975 26.6697 67.1325 26.3657C67.3795 26.0747 67.5525 25.7108 67.6645 25.2978C67.7745 24.8848 67.8245 24.4358 67.8245 23.9508V16.7278H70.6175V29.1698ZM75.3745 25.1768C75.4615 25.9768 75.7695 26.5368 76.3015 26.8638C76.8445 27.1798 77.4875 27.3498 78.2415 27.3498C78.5015 27.3498 78.7975 27.3247 79.1315 27.2887C79.4645 27.2517 79.7855 27.1667 80.0705 27.0588C80.3665 26.9488 80.6005 26.7788 80.7985 26.5608C80.9845 26.3408 81.0705 26.0628 81.0585 25.7108C81.0569 25.5474 81.0209 25.3862 80.9528 25.2377C80.8848 25.0891 80.7862 24.9566 80.6635 24.8488C80.4155 24.6188 80.1075 24.4487 79.7235 24.3027C79.2957 24.1545 78.8579 24.0369 78.4135 23.9508C77.9195 23.8538 77.4255 23.7438 76.9195 23.6348C76.4097 23.5245 75.9063 23.3866 75.4115 23.2218C74.9474 23.073 74.5097 22.852 74.1145 22.5667C73.7294 22.298 73.4154 21.9397 73.1995 21.5228C72.9655 21.0978 72.8535 20.5757 72.8535 19.9447C72.8535 19.2648 73.0265 18.7068 73.3605 18.2448C73.6974 17.7866 74.1323 17.4094 74.6335 17.1408C75.1721 16.856 75.7512 16.6554 76.3505 16.5457C76.9805 16.4367 77.5865 16.3757 78.1545 16.3757C78.8095 16.3757 79.4395 16.4488 80.0335 16.5828C80.6086 16.7059 81.1567 16.9318 81.6515 17.2498C82.1335 17.5538 82.5285 17.9538 82.8505 18.4398C83.1715 18.9248 83.3695 19.5198 83.4555 20.2118H80.5395C80.4035 19.5568 80.1065 19.1077 79.6255 18.8888C79.1435 18.6588 78.5875 18.5487 77.9695 18.5487C77.7715 18.5487 77.5365 18.5607 77.2655 18.5977C77.0043 18.6325 76.7474 18.6935 76.4985 18.7798C76.271 18.8635 76.0645 18.9959 75.8935 19.1677C75.8104 19.2574 75.7459 19.3625 75.7035 19.4772C75.6611 19.5918 75.6418 19.7136 75.6465 19.8358C75.6465 20.1758 75.7695 20.4427 76.0045 20.6488C76.2395 20.8548 76.5485 21.0247 76.9315 21.1707C77.3145 21.3047 77.7475 21.4258 78.2415 21.5228C78.7355 21.6198 79.2415 21.7288 79.7615 21.8388C80.2675 21.9478 80.7615 22.0938 81.2565 22.2507C81.7505 22.4087 82.1825 22.6277 82.5665 22.9067C82.9495 23.1858 83.2585 23.5257 83.4925 23.9387C83.7275 24.3507 83.8515 24.8727 83.8515 25.4797C83.8515 26.2197 83.6785 26.8397 83.3315 27.3617C82.9865 27.8717 82.5415 28.2957 81.9975 28.6117C81.428 28.9398 80.811 29.1773 80.1685 29.3158C79.5149 29.4595 78.8477 29.5326 78.1785 29.5338C77.429 29.5422 76.6817 29.4524 75.9555 29.2668C75.2755 29.0848 74.6825 28.8177 74.1885 28.4667C73.7002 28.112 73.2988 27.6511 73.0145 27.1187C72.7305 26.5847 72.5815 25.9408 72.5575 25.2008H75.3745V25.1768ZM84.5925 16.7167H86.7055V12.9768H89.4985V16.7167H92.0185V18.7668H89.4995V25.4198C89.4995 25.7098 89.5115 25.9538 89.5365 26.1718C89.5605 26.3788 89.6225 26.5607 89.7095 26.7057C89.804 26.8581 89.9475 26.9738 90.1165 27.0338C90.3025 27.1068 90.5365 27.1437 90.8585 27.1437C91.0555 27.1437 91.2535 27.1438 91.4515 27.1308C91.6495 27.1188 91.8465 27.0947 92.0445 27.0457V29.1698C91.7355 29.2068 91.4265 29.2308 91.1425 29.2668C90.8431 29.3015 90.5419 29.3179 90.2405 29.3158C89.4995 29.3158 88.9065 29.2428 88.4605 29.1098C88.0165 28.9757 87.6575 28.7698 87.4105 28.5028C87.1505 28.2358 86.9905 27.9078 86.8915 27.5068C86.7952 27.0558 86.7416 26.5968 86.7315 26.1357V18.7898H84.6185V16.7138H84.5935L84.5925 16.7167ZM93.9955 16.7167H96.6405V18.4028H96.6905C97.0845 17.6747 97.6285 17.1648 98.3325 16.8498C99.0521 16.5298 99.832 16.3682 100.619 16.3757C101.619 16.3757 102.484 16.5458 103.226 16.8978C103.967 17.2378 104.585 17.7118 105.079 18.3178C105.573 18.9248 105.932 19.6287 106.179 20.4307C106.431 21.265 106.556 22.1324 106.55 23.0037C106.55 23.8407 106.439 24.6537 106.216 25.4317C106.012 26.1822 105.673 26.8893 105.215 27.5187C104.766 28.1256 104.183 28.6202 103.51 28.9638C102.818 29.3278 102.015 29.5098 101.076 29.5098C100.666 29.5093 100.256 29.4725 99.8525 29.3997C99.4495 29.3271 99.0561 29.2094 98.6795 29.0487C98.3054 28.8926 97.9555 28.6839 97.6405 28.4288C97.3296 28.1807 97.0587 27.8863 96.8375 27.5557H96.7875V33.7708H93.9955V16.7148V16.7167ZM103.757 22.9548C103.758 22.4012 103.683 21.8502 103.535 21.3167C103.399 20.8113 103.172 20.3345 102.867 19.9088C102.578 19.5037 102.203 19.1677 101.768 18.9247C101.302 18.6726 100.779 18.5432 100.248 18.5487C99.0745 18.5487 98.1845 18.9487 97.5915 19.7507C96.9985 20.5517 96.7015 21.6208 96.7015 22.9548C96.7015 23.5857 96.7765 24.1687 96.9365 24.7027C97.0965 25.2367 97.3195 25.6987 97.6405 26.0868C97.9505 26.4757 98.3205 26.7787 98.7535 26.9967C99.1855 27.2277 99.6925 27.3368 100.26 27.3368C100.903 27.3368 101.434 27.2037 101.879 26.9487C102.31 26.7008 102.682 26.3611 102.966 25.9538C103.25 25.5408 103.461 25.0788 103.584 24.5578C103.698 24.031 103.756 23.4937 103.757 22.9548ZM108.687 11.9698H111.48V14.5677H108.687V11.9698ZM108.687 16.7157H111.48V29.1698H108.687V16.7157ZM113.976 11.9698H116.769V29.1698H113.976V11.9698ZM125.332 29.5098C124.318 29.5098 123.416 29.3398 122.626 29.0128C121.869 28.7021 121.184 28.2392 120.612 27.6528C120.057 27.0545 119.632 26.3476 119.363 25.5767C119.07 24.7259 118.923 23.8309 118.931 22.9307C118.931 21.9837 119.079 21.1108 119.363 20.3088C119.632 19.5383 120.057 18.8318 120.612 18.2337C121.155 17.6507 121.835 17.2018 122.626 16.8738C123.416 16.5458 124.318 16.3757 125.332 16.3757C126.345 16.3757 127.247 16.5458 128.038 16.8738C128.829 17.2018 129.496 17.6637 130.052 18.2337C130.608 18.8316 131.033 19.5382 131.3 20.3088C131.584 21.1097 131.732 21.9837 131.732 22.9307C131.732 23.8907 131.584 24.7758 131.3 25.5767C131.033 26.3477 130.608 27.0547 130.052 27.6528C129.508 28.2358 128.829 28.6848 128.038 29.0128C127.247 29.3398 126.345 29.5098 125.332 29.5098ZM125.332 27.3368C125.95 27.3368 126.493 27.2037 126.95 26.9487C127.396 26.7008 127.78 26.3564 128.075 25.9408C128.371 25.5288 128.581 25.0548 128.73 24.5328C128.866 24.0108 128.94 23.4767 128.94 22.9307C128.94 22.3967 128.866 21.8748 128.73 21.3407C128.603 20.8342 128.381 20.3564 128.075 19.9328C127.78 19.5211 127.395 19.181 126.95 18.9377C126.493 18.6827 125.95 18.5487 125.332 18.5487C124.714 18.5487 124.17 18.6827 123.713 18.9377C123.272 19.1847 122.888 19.5241 122.589 19.9328C122.288 20.359 122.067 20.8359 121.934 21.3407C121.798 21.8598 121.727 22.394 121.723 22.9307C121.723 23.4767 121.798 24.0108 121.934 24.5328C122.07 25.0548 122.292 25.5288 122.589 25.9408C122.885 26.3538 123.256 26.6937 123.713 26.9487C124.17 27.2157 124.714 27.3368 125.332 27.3368ZM132.548 16.7167H134.661V12.9768H137.454V16.7167H139.974V18.7668H137.454V25.4198C137.454 25.7098 137.466 25.9538 137.49 26.1718C137.515 26.3788 137.577 26.5607 137.664 26.7057C137.759 26.8583 137.902 26.974 138.071 27.0338C138.257 27.1068 138.491 27.1437 138.813 27.1437C139.01 27.1437 139.208 27.1438 139.406 27.1308C139.604 27.1188 139.801 27.0947 139.999 27.0457V29.1698C139.69 29.2068 139.381 29.2308 139.097 29.2668C138.798 29.3015 138.497 29.3179 138.195 29.3158C137.454 29.3158 136.86 29.2428 136.415 29.1098C135.971 28.9757 135.612 28.7698 135.365 28.5028C135.106 28.2358 134.945 27.9078 134.846 27.5068C134.75 27.0558 134.697 26.5967 134.686 26.1357V18.7898H132.573V16.7138H132.548V16.7167Z" fill="black"/>
<path d="M33.523 11.969H20.722L16.768 0L12.8 11.97L0 11.957L10.367 19.361L6.401 31.317L16.768 23.925L27.123 31.317L23.169 19.361L33.523 11.969Z" fill="#04DA8D"/>
<path d="M24.0576 22.0693L23.1676 19.3623L16.7676 23.9263L24.0576 22.0693Z" fill="#126849"/>
</g>
<defs>
<clipPath id="clip0_0_452">
<rect width="140" height="34" fill="white"/>
</clipPath>
</defs>
</svg>
