<svg width="128" height="24" viewBox="0 0 128 24" fill="none" xmlns="http://www.w3.org/2000/svg">
<path d="M24 0H0V24H24V0Z" fill="#00B67A"/>
<path d="M12.0016 16.1748L15.6516 15.2498L17.1766 19.9498L12.0016 16.1748ZM20.4016 10.0998H13.9766L12.0016 4.0498L10.0266 10.0998H3.60156L8.80156 13.8498L6.82656 19.8998L12.0266 16.1498L15.2266 13.8498L20.4016 10.0998Z" fill="white"/>
<path d="M50 0H26V24H50V0Z" fill="#00B67A"/>
<path d="M38.0016 16.1748L41.6516 15.2498L43.1766 19.9498L38.0016 16.1748ZM46.4016 10.0998H39.9766L38.0016 4.0498L36.0266 10.0998H29.6016L34.8016 13.8498L32.8266 19.8998L38.0266 16.1498L41.2266 13.8498L46.4016 10.0998Z" fill="white"/>
<path d="M76 0H52V24H76V0Z" fill="#00B67A"/>
<path d="M64.0016 16.1748L67.6516 15.2498L69.1766 19.9498L64.0016 16.1748ZM72.4016 10.0998H65.9766L64.0016 4.0498L62.0266 10.0998H55.6016L60.8016 13.8498L58.8266 19.8998L64.0266 16.1498L67.2266 13.8498L72.4016 10.0998Z" fill="white"/>
<path d="M102 0H78V24H102V0Z" fill="#00B67A"/>
<path d="M90.0016 16.1748L93.6516 15.2498L95.1766 19.9498L90.0016 16.1748ZM98.4016 10.0998H91.9766L90.0016 4.0498L88.0266 10.0998H81.6016L86.8016 13.8498L84.8266 19.8998L90.0266 16.1498L93.2266 13.8498L98.4016 10.0998Z" fill="white"/>
<path d="M128 0H104V24H128V0Z" fill="#00B67A"/>
<path d="M116.002 16.1748L119.652 15.2498L121.177 19.9498L116.002 16.1748ZM124.402 10.0998H117.977L116.002 4.0498L114.027 10.0998H107.602L112.802 13.8498L110.827 19.8998L116.027 16.1498L119.227 13.8498L124.402 10.0998Z" fill="white"/>
</svg>
