<svg width="36" height="36" viewBox="0 0 36 36" fill="none" xmlns="http://www.w3.org/2000/svg">
<circle cx="18" cy="18" r="18" fill="black"/>
<path d="M25.6802 21.5296L20.0747 12.1608C19.1591 10.6131 16.8438 10.6131 15.9315 12.1608L10.3227 21.5296C9.40715 23.0773 10.5467 25 12.3943 25H23.5888C25.4364 25 26.5957 23.0582 25.6802 21.5296ZM17.9998 22.9216C17.5124 22.9216 17.1073 22.5307 17.1073 22.0603C17.1073 21.59 17.5124 21.1991 17.9998 21.1991C18.4872 21.1991 18.8923 21.59 18.8726 22.0826C18.8956 22.5307 18.4675 22.9216 17.9998 22.9216ZM18.8133 17.3537C18.7738 18.0211 18.7309 18.6853 18.6914 19.3526C18.6717 19.5688 18.6717 19.7658 18.6717 19.9787C18.6519 20.3315 18.3654 20.6048 17.9998 20.6048C17.6342 20.6048 17.351 20.3505 17.3279 19.9978C17.2686 18.9586 17.2061 17.9384 17.1468 16.8992C17.127 16.6259 17.1073 16.3494 17.0842 16.0761C17.0842 15.6248 17.3477 15.253 17.7758 15.1354C18.204 15.0369 18.6288 15.2339 18.8133 15.6248C18.8759 15.7615 18.8956 15.8981 18.8956 16.057C18.8759 16.4924 18.833 16.9246 18.8133 17.3537Z" fill="white"/>
</svg>
