<svg width="64" height="64" viewBox="0 0 64 64" fill="none" xmlns="http://www.w3.org/2000/svg">
<circle cx="32" cy="32" r="32" fill="#23292F"/>
<path d="M47.9992 14.8243H54.5393L40.9289 28.3003C36 33.1779 28.0088 33.1779 23.0764 28.3003L9.46072 14.8243H16.0061L26.3464 25.0612C27.853 26.5461 29.8833 27.3785 31.9987 27.3785C34.114 27.3785 36.1444 26.5461 37.6509 25.0612L47.9992 14.8243Z" fill="white"/>
<path d="M15.9195 49.1757H9.375L23.0737 35.6166C28.0026 30.739 35.9938 30.739 40.9263 35.6166L54.625 49.1757H48.085L37.6563 38.8557C36.1497 37.3709 34.1193 36.5385 32.004 36.5385C29.8887 36.5385 27.8583 37.3709 26.3517 38.8557L15.9195 49.1757Z" fill="white"/>
</svg>
