<svg width="64" height="64" viewBox="0 0 64 64" fill="none" xmlns="http://www.w3.org/2000/svg">
<circle cx="32" cy="32" r="32" fill="#FF007A"/>
<g clip-path="url(#clip0_2070_147)">
<path d="M28.7647 22.192C28.3904 22.1362 28.3725 22.1176 28.5508 22.0991C28.8895 22.0433 29.6738 22.1176 30.2264 22.2477C31.5098 22.5635 32.6684 23.3808 33.8984 24.8111L34.2193 25.2012L34.6827 25.1269C36.6613 24.7926 38.6934 25.0526 40.3868 25.87C40.8503 26.0929 41.5811 26.5387 41.6702 26.6502C41.7059 26.6873 41.7594 26.9288 41.795 27.1703C41.9198 28.0433 41.8663 28.6935 41.5989 29.195C41.4563 29.4737 41.4563 29.548 41.5455 29.7895C41.6168 29.9752 41.8307 30.1053 42.0267 30.1053C42.4545 30.1053 42.9002 29.3994 43.1141 28.4149L43.2032 28.0248L43.3636 28.2105C44.2727 29.2694 44.9857 30.7368 45.0927 31.7771L45.1283 32.0557L44.9679 31.8142C44.7005 31.387 44.451 31.1084 44.1123 30.8669C43.5062 30.4396 42.8645 30.3096 41.1711 30.2167C39.6381 30.1238 38.7647 29.9938 37.9091 29.6966C36.4474 29.195 35.6988 28.5449 33.9697 26.1486C33.2032 25.0898 32.7219 24.5139 32.2406 24.031C31.1889 22.9721 30.1373 22.4149 28.7647 22.192Z" fill="white"/>
<path d="M42.0446 24.5511C42.0802 23.8452 42.1693 23.3808 42.3654 22.9536C42.4367 22.7864 42.508 22.6378 42.5258 22.6378C42.5437 22.6378 42.508 22.7678 42.4545 22.9164C42.3119 23.3251 42.2941 23.9009 42.3832 24.5511C42.508 25.387 42.5615 25.4985 43.4171 26.4087C43.8093 26.8359 44.2727 27.3746 44.451 27.5975L44.754 28.0062L44.451 27.709C44.0766 27.3375 43.221 26.6316 43.025 26.5387C42.9002 26.4644 42.8824 26.4644 42.7932 26.5573C42.7219 26.6316 42.7041 26.743 42.7041 27.2817C42.6863 28.1176 42.5793 28.6378 42.3119 29.1765C42.1693 29.4551 42.1515 29.3994 42.2763 29.0836C42.3654 28.8421 42.3832 28.7307 42.3832 27.9319C42.3832 26.3158 42.205 25.9257 41.1176 25.2755C40.8503 25.1084 40.3868 24.8669 40.1194 24.7368C39.8342 24.6068 39.6203 24.4954 39.6381 24.4954C39.6738 24.4582 40.7255 24.774 41.1355 24.9598C41.7594 25.2198 41.8663 25.2384 41.9376 25.2198C41.9911 25.1641 42.0267 25.0155 42.0446 24.5511Z" fill="white"/>
<path d="M29.4955 27.3189C28.7469 26.2415 28.2656 24.5697 28.3725 23.3251L28.4082 22.935L28.5865 22.9721C28.9073 23.0279 29.4599 23.2508 29.7273 23.418C30.4403 23.8638 30.7611 24.4768 31.0642 26C31.1533 26.4458 31.2781 26.9659 31.3315 27.1331C31.4207 27.4118 31.7594 28.0619 32.0446 28.4706C32.2406 28.7678 32.1159 28.9164 31.6702 28.8793C30.9929 28.805 30.0838 28.1548 29.4955 27.3189Z" fill="white"/>
<path d="M41.1355 35.3994C37.6061 33.9133 36.3583 32.6316 36.3583 30.4582C36.3583 30.1424 36.3761 29.8824 36.3761 29.8824C36.3939 29.8824 36.5187 29.9938 36.6791 30.1238C37.3922 30.7183 38.1943 30.9783 40.4225 31.3127C41.7237 31.517 42.4724 31.6656 43.1497 31.9071C45.3066 32.6502 46.6435 34.1734 46.9643 36.2353C47.0535 36.8297 47 37.9628 46.8574 38.5573C46.7326 39.0217 46.3761 39.8762 46.287 39.8947C46.2692 39.8947 46.2335 39.8019 46.2335 39.6533C46.1979 38.8731 45.8235 38.13 45.1996 37.5542C44.451 36.8855 43.4884 36.3839 41.1355 35.3994Z" fill="white"/>
<path d="M38.6399 36.0124C38.6043 35.7338 38.5152 35.3808 38.4617 35.2322L38.3725 34.9536L38.533 35.1579C38.7647 35.4365 38.943 35.7709 39.1034 36.2353C39.2282 36.5882 39.2282 36.6997 39.2282 37.2755C39.2282 37.8328 39.2103 37.9629 39.1034 38.2786C38.9251 38.7802 38.7112 39.1331 38.3547 39.5232C37.713 40.2105 36.8752 40.582 35.6809 40.7492C35.467 40.7678 34.861 40.8235 34.3262 40.8607C32.9893 40.935 32.098 41.0836 31.2959 41.3808C31.1889 41.418 31.082 41.4551 31.0642 41.4365C31.0285 41.3994 31.5811 41.065 32.0267 40.8421C32.6506 40.5263 33.2923 40.3591 34.7005 40.0991C35.3957 39.9876 36.1087 39.839 36.287 39.7647C38.0517 39.1889 38.9251 37.7585 38.6399 36.0124Z" fill="white"/>
<path d="M40.262 39.0031C39.7986 37.9443 39.6916 36.9412 39.9412 35.9938C39.9768 35.9009 40.0125 35.808 40.0481 35.808C40.0838 35.808 40.1907 35.8638 40.2977 35.9381C40.5116 36.0867 40.9572 36.3467 42.098 36.9969C43.5419 37.8142 44.3619 38.4458 44.9323 39.1703C45.4314 39.8019 45.7344 40.5263 45.877 41.418C45.9661 41.9195 45.9127 43.1269 45.7879 43.6285C45.3957 45.2074 44.5045 46.4706 43.2032 47.195C43.0071 47.3065 42.8467 47.3808 42.8289 47.3808C42.811 47.3808 42.8824 47.195 42.9893 46.9721C43.4171 46.0248 43.4706 45.1145 43.1497 44.0929C42.9537 43.4613 42.5437 42.6997 41.7237 41.418C40.7433 39.9319 40.5116 39.5418 40.262 39.0031Z" fill="white"/>
<path d="M26.9822 44.6873C28.3012 43.5356 29.9233 42.7183 31.4207 42.4582C32.0624 42.3468 33.1319 42.3839 33.7201 42.5511C34.6649 42.8112 35.5205 43.3684 35.9661 44.0557C36.3939 44.7245 36.59 45.3003 36.7861 46.582C36.8574 47.0836 36.9465 47.6037 36.9643 47.7152C37.1069 48.3839 37.3922 48.904 37.7487 49.1827C38.3012 49.6099 39.2638 49.6285 40.2086 49.257C40.369 49.2012 40.5116 49.1455 40.5116 49.1641C40.5472 49.2012 40.066 49.5356 39.7451 49.7028C39.2995 49.9443 38.943 50.0186 38.4617 50.0186C37.6061 50.0186 36.8752 49.5542 36.287 48.6254C36.1622 48.4396 35.9127 47.9009 35.6988 47.3994C35.0749 45.8947 34.754 45.4489 34.0232 44.9474C33.3815 44.5201 32.5615 44.4273 31.9376 44.743C31.1176 45.1517 30.9037 46.2477 31.4742 46.9164C31.7059 47.1951 32.1337 47.418 32.4902 47.4737C33.1497 47.5666 33.7201 47.0279 33.7201 46.3406C33.7201 45.8947 33.5597 45.6347 33.1319 45.4303C32.5615 45.1703 31.9376 45.4675 31.9554 46.0433C31.9554 46.2848 32.0624 46.4334 32.2941 46.5449C32.4367 46.6192 32.4367 46.6192 32.3298 46.6006C31.8128 46.4892 31.6881 45.8204 32.098 45.3932C32.5971 44.8731 33.6488 45.096 34.0053 45.8204C34.1479 46.1177 34.1658 46.7121 34.041 47.0836C33.738 47.9009 32.8824 48.3282 32.0089 48.0867C31.4207 47.9195 31.1711 47.7523 30.4581 46.9907C29.2103 45.6533 28.7291 45.3932 26.9465 45.1146L26.6078 45.0588L26.9822 44.6873Z" fill="white"/>
<path fill-rule="evenodd" clip-rule="evenodd" d="M17.6061 14.7988C21.7594 20.0557 28.1586 28.2291 28.4795 28.6749C28.7469 29.0464 28.6399 29.3994 28.1943 29.6594C27.9447 29.808 27.4278 29.9567 27.1783 29.9567C26.893 29.9567 26.5544 29.808 26.3226 29.5666C26.1622 29.3994 25.467 28.3406 23.8984 25.7957C22.7041 23.8452 21.6881 22.2291 21.6702 22.2105C21.5989 22.1734 21.5989 22.1734 23.7736 26.2229C25.1462 28.7678 25.5918 29.678 25.5918 29.7895C25.5918 30.031 25.5205 30.161 25.2353 30.4954C24.754 31.0526 24.5401 31.6842 24.3797 33.0031C24.2014 34.4706 23.7201 35.5108 22.3476 37.2755C21.5455 38.3158 21.4207 38.5015 21.2246 38.9288C20.975 39.4489 20.9037 39.7461 20.8681 40.4149C20.8324 41.1207 20.9037 41.5666 21.0998 42.2353C21.2781 42.8297 21.4742 43.2198 21.9554 43.9814C22.3654 44.6502 22.615 45.1517 22.615 45.3375C22.615 45.4861 22.6506 45.4861 23.2923 45.3375C24.8253 44.9659 26.0909 44.3344 26.7861 43.5542C27.2139 43.0712 27.3209 42.8111 27.3209 42.1424C27.3209 41.7152 27.303 41.6223 27.1961 41.3622C27.0178 40.9536 26.6791 40.6192 25.9483 40.0991C24.9857 39.4118 24.5758 38.8545 24.4688 38.1115C24.3797 37.4799 24.4866 37.0526 25.0214 35.8824C25.574 34.6749 25.7166 34.1734 25.8057 32.9474C25.8592 32.1672 25.9483 31.8514 26.1622 31.6099C26.3939 31.3498 26.59 31.257 27.1426 31.1827C28.0517 31.0526 28.6399 30.8111 29.1034 30.3467C29.5134 29.9567 29.6916 29.5666 29.7094 28.9907L29.7273 28.5635L29.4955 28.3034C28.6578 27.3003 17.0535 14 17 14C16.9822 14 17.2674 14.3529 17.6061 14.7988ZM23.0784 41.2136C23.2745 40.8607 23.1676 40.4149 22.8467 40.1919C22.5437 39.9876 22.0802 40.0805 22.0802 40.3591C22.0802 40.4334 22.1159 40.5077 22.2228 40.5449C22.3832 40.6378 22.4011 40.7306 22.2763 40.935C22.1515 41.1393 22.1515 41.3251 22.3119 41.4551C22.5615 41.6594 22.9002 41.548 23.0784 41.2136Z" fill="white"/>
<path fill-rule="evenodd" clip-rule="evenodd" d="M30.2977 31.4427C29.8699 31.5727 29.4599 32.0557 29.3351 32.5387C29.2638 32.8359 29.2995 33.3746 29.4242 33.5418C29.6203 33.8018 29.7986 33.8762 30.2977 33.8762C31.2781 33.8762 32.1159 33.4303 32.205 32.8916C32.2941 32.4458 31.9198 31.8328 31.4029 31.5542C31.1355 31.4056 30.5829 31.3498 30.2977 31.4427ZM31.4385 32.3715C31.5811 32.1486 31.5276 31.9071 31.2602 31.7399C30.779 31.4241 30.0481 31.6842 30.0481 32.1672C30.0481 32.4087 30.4225 32.6687 30.779 32.6687C31.0107 32.6687 31.3316 32.5201 31.4385 32.3715Z" fill="white"/>
</g>
<defs>
<clipPath id="clip0_2070_147">
<rect width="30" height="36" fill="white" transform="translate(17 14)"/>
</clipPath>
</defs>
</svg>
