<svg width="64" height="64" viewBox="0 0 64 64" fill="none" xmlns="http://www.w3.org/2000/svg">
<circle cx="32" cy="32" r="32" fill="#C3A634"/>
<path d="M26.1576 13.9857L25.6779 13.6559C25.657 13.6335 25.6307 13.6169 25.6016 13.6075C25.5724 13.5982 25.5414 13.5964 25.5113 13.6024C25.4813 13.6084 25.4533 13.622 25.43 13.6419C25.4067 13.6617 25.3888 13.6872 25.3781 13.7158V13.8358L25.4681 14.3155L25.4081 16.2044C25.4081 16.2643 25.4081 16.2943 25.3481 16.3243L25.2882 16.3843C25.113 17.0325 24.9431 17.6821 24.7785 18.3331C24.7469 18.4891 24.6745 18.634 24.5686 18.7529L24.1488 19.2026C23.6391 19.7423 23.6991 19.8322 24.3587 19.5024C24.8684 19.2026 25.4081 18.8728 25.9478 18.453C26.1277 18.3331 26.4275 18.3031 26.8472 18.3331C26.9158 18.3415 26.9793 18.3733 27.0271 18.4231L27.5968 18.8728C27.6568 18.8728 27.7167 18.9627 27.7167 19.0227C27.7467 19.3525 27.7167 19.6823 27.4769 19.9222C27.0386 20.4056 26.8026 21.0388 26.8173 21.6911C26.8173 21.7811 26.7873 21.841 26.6973 21.901C26.2176 22.1708 26.1876 22.7105 25.7979 23.1003L25.1982 23.55L25.1382 22.2908C25.1371 22.2117 25.1048 22.1363 25.0483 22.0809C25.0174 22.0491 24.9799 22.0246 24.9385 22.009C24.897 21.9935 24.8526 21.9873 24.8084 21.9909C24.6585 21.9909 24.5086 22.0809 24.3887 22.2308C24.0289 22.6506 23.6092 22.9504 23.0695 23.1603C22.6797 23.2502 22.3799 23.55 22.23 24.1197C22.1443 24.3202 22.0223 24.5032 21.8702 24.6594C21.9301 23.7899 21.5404 23.4001 20.6709 23.4601C20.491 23.52 20.2212 23.67 19.8314 24.0297C19.7761 24.0652 19.7339 24.1179 19.7115 24.1797C19.6677 24.4292 19.5625 24.664 19.4055 24.8629C19.2485 25.0617 19.0446 25.2185 18.812 25.319C18.6321 25.349 18.5422 25.319 18.5721 25.1091V25.0491C19.2317 23.8498 19.2317 22.4407 20.3711 21.4813C20.7608 21.1514 21.0906 20.9416 21.3605 20.8516C23.2793 20.192 24.2987 18.9328 24.3587 17.0739L24.4487 15.215C24.4487 14.4954 24.5686 13.8358 24.7485 13.2361C24.7785 13.1462 24.8384 13.0862 24.9284 13.0263C25.0149 12.9912 25.1117 12.9912 25.1982 13.0263L25.7079 13.1462C25.7979 13.1462 25.8278 13.2061 25.8578 13.2661L26.1576 13.9857Z" fill="#E1B051"/>
<path d="M26.1579 13.9843L26.5177 14.4041C27.056 15.1398 27.5087 15.9344 27.8669 16.7727C27.9868 17.0425 28.2867 17.3423 28.7364 17.6721C29.0062 17.852 28.7364 17.9719 27.9269 17.9719C27.358 17.5036 26.8803 16.9344 26.5177 16.2929C26.3808 16.076 26.2985 15.8291 26.2779 15.5734C26.2516 15.1618 26.0693 14.7757 25.7682 14.494C25.7499 14.4835 25.7292 14.4779 25.7082 14.4779C25.6871 14.4779 25.6665 14.4835 25.6482 14.494C25.6263 14.4991 25.6062 14.5102 25.5903 14.5261C25.5744 14.542 25.5633 14.562 25.5583 14.584V14.7938C25.4874 14.6444 25.4565 14.4791 25.4683 14.3141L25.3784 13.8344C25.3738 13.7989 25.3798 13.7628 25.3959 13.7307C25.4119 13.6987 25.4371 13.6721 25.4683 13.6545C25.4989 13.6325 25.5356 13.6207 25.5733 13.6207C25.6109 13.6207 25.6476 13.6325 25.6782 13.6545L26.1579 13.9843Z" fill="#B87C29"/>
<path d="M41.3889 14.3752C41.179 14.4052 41.089 14.5251 41.089 14.765C41.089 15.1248 41.2989 15.3646 41.2989 15.7244V16.354C41.2389 16.8637 41.6887 17.3434 41.8086 17.8232C41.9885 18.4528 42.0485 19.0224 41.9585 19.5321C41.8386 20.0119 41.7786 20.5216 41.7187 21.0313C41.7187 21.3311 41.5987 21.511 41.4188 21.6609C41.4002 21.6749 41.3851 21.693 41.3747 21.7138C41.3643 21.7346 41.3589 21.7575 41.3589 21.7808C41.3589 21.8041 41.3643 21.827 41.3747 21.8479C41.3851 21.8687 41.4002 21.8868 41.4188 21.9007C41.6887 22.0507 41.8386 22.2605 41.9285 22.5004C41.9336 22.5223 41.9447 22.5424 41.9606 22.5583C41.9765 22.5742 41.9966 22.5853 42.0185 22.5903C42.0457 22.5912 42.0724 22.5828 42.0942 22.5664C42.116 22.5501 42.1316 22.5268 42.1384 22.5004C42.2399 22.317 42.2916 22.1103 42.2883 21.9007C42.3676 21.9642 42.4295 22.0467 42.4682 22.1406C42.6481 22.6503 42.888 23.16 43.1278 23.6397C43.4276 24.1794 43.5776 24.6591 43.6375 25.0189C43.8174 25.8584 43.9373 26.6679 43.9373 27.4774C43.9973 27.8672 44.1172 28.4369 44.2372 28.7967C44.6569 29.8161 44.9567 30.8954 45.1366 31.9448V34.0436C45.1366 34.1335 45.1366 34.1935 45.1966 34.2534C45.4365 34.5533 45.4964 34.943 45.3765 35.3928C45.3465 35.6026 45.3765 35.7525 45.5264 35.9025C45.5864 35.9624 45.6163 36.0224 45.6163 36.1123C45.6163 36.5021 45.4664 36.8319 45.2266 37.1017C45.0501 37.302 44.9174 37.5369 44.8368 37.7913C44.597 38.451 44.1172 39.1106 43.3677 39.2905C43.3058 39.3025 43.2471 39.3274 43.1955 39.3635C43.1438 39.3997 43.1003 39.4463 43.0679 39.5003C42.768 39.98 42.7081 40.3998 42.0784 40.6397H41.8986C41.7187 40.4897 41.5388 40.5197 41.2989 40.6696C41.4488 40.2199 41.5987 39.7702 41.8086 39.2905C41.9248 39.0584 42.0765 38.846 42.2583 38.6608C42.5582 38.301 42.6781 37.8513 42.5582 37.2816C42.5423 37.2104 42.5529 37.1357 42.5881 37.0718C42.9179 36.592 43.0978 36.1123 43.4876 35.6626C43.8286 35.2517 44.0001 34.7264 43.9673 34.1935C43.963 34.1793 43.9553 34.1664 43.9449 34.156C43.9344 34.1455 43.9215 34.1378 43.9074 34.1335C43.8937 34.1256 43.8782 34.1215 43.8624 34.1215C43.8466 34.1215 43.8311 34.1256 43.8174 34.1335C43.2178 34.7631 42.4682 35.1529 41.9885 35.8725C41.3889 36.8019 40.6393 37.6114 39.7698 38.2711C39.6499 38.391 39.5599 38.5709 39.5899 38.7508C39.6499 39.2005 39.5899 39.6802 40.1896 39.7102C40.2795 39.7102 40.3395 39.7702 40.3395 39.8601C40.3395 40.04 40.2795 40.1899 40.1596 40.3398C39.8805 40.7637 39.6106 41.1936 39.3501 41.6291C39.3551 41.651 39.3662 41.671 39.3821 41.6869C39.398 41.7029 39.4181 41.714 39.44 41.719H39.5899C39.41 41.809 39.2901 41.9289 39.0502 41.9589C38.4506 42.0188 38.0908 41.9289 37.9409 41.719C38.2407 41.2993 38.5405 40.9695 38.8404 40.7296C39.0802 40.4897 39.2001 40.1599 39.1402 39.8001C39.1332 39.7658 39.1143 39.735 39.0869 39.713C39.0596 39.6911 39.0253 39.6795 38.9903 39.6802C38.8562 39.6882 38.7245 39.7186 38.6005 39.7702C38.5777 39.7833 38.5519 39.7903 38.5255 39.7903C38.4992 39.7903 38.4734 39.7833 38.4506 39.7702C38.4237 39.7571 38.4027 39.7345 38.3916 39.7068C38.3805 39.6791 38.3802 39.6482 38.3906 39.6203C38.433 39.4233 38.4432 39.2208 38.4206 39.0206L38.4506 38.8707L38.9903 37.9712C38.9955 37.9621 38.9983 37.9518 38.9983 37.9412C38.9983 37.9307 38.9955 37.9204 38.9903 37.9113C38.9846 37.9049 38.9777 37.8998 38.97 37.8963C38.9622 37.8928 38.9538 37.891 38.9453 37.891C38.9368 37.891 38.9284 37.8928 38.9206 37.8963C38.9129 37.8998 38.906 37.9049 38.9003 37.9113C38.5736 38.2379 38.1554 38.4574 37.701 38.5409C37.6411 38.5409 37.5811 38.5409 37.5811 38.4509L37.5511 38.361C37.7806 38.2836 37.9869 38.1495 38.1508 37.9712C38.2707 37.8513 38.3307 37.6714 38.3307 37.4316C38.3307 36.8319 39.2001 36.1423 39.5899 35.7525C39.6495 35.6953 39.6942 35.6245 39.7203 35.5462C39.7465 35.4678 39.7531 35.3843 39.7398 35.3028C39.6748 34.9553 39.6248 34.6052 39.5899 34.2534C39.5899 34.1335 39.5899 34.0436 39.7398 33.9836H39.8298L39.8897 34.0136L39.9797 34.1035C40.0396 34.1635 40.0996 34.1335 40.1596 34.0735L40.4894 33.4739V33.3839C40.4342 33.0806 40.4606 32.768 40.566 32.4783C40.6713 32.1885 40.8519 31.932 41.089 31.7349C41.236 31.5571 41.3203 31.3358 41.3289 31.1053C41.3289 31.0453 41.3289 30.9854 41.2389 30.9254L40.9391 30.7455C40.9079 30.7279 40.8827 30.7014 40.8667 30.6693C40.8506 30.6373 40.8445 30.6012 40.8492 30.5656C40.8732 30.2826 40.9772 30.0123 41.149 29.7861C41.209 29.7561 41.209 29.6961 41.149 29.6661C40.9391 29.4863 40.7592 29.0665 40.9691 28.7967C41.016 28.7241 41.0467 28.6423 41.059 28.5568C41.059 28.4968 41.059 28.4369 40.9991 28.4069C40.6993 28.1371 40.6993 27.8672 40.8492 27.5374V27.3875L40.3695 26.8778C40.3348 26.847 40.3133 26.8041 40.3095 26.7579C40.3095 26.608 40.3095 26.458 40.1896 26.3681C40.1788 26.3552 40.1648 26.3456 40.1489 26.3403C40.133 26.335 40.1159 26.3342 40.0996 26.3381H40.0696L40.0397 26.3981C39.9689 26.5587 39.8782 26.7098 39.7698 26.8478L39.7098 26.8778C39.6799 26.8778 39.6499 26.8778 39.6499 26.8178L39.7698 26.3381C39.7698 26.2482 39.7398 26.2182 39.6499 26.2182L38.9303 26.1882H38.8703C38.8575 26.1989 38.8478 26.213 38.8425 26.2289C38.8372 26.2448 38.8365 26.2619 38.8404 26.2782V26.3081L39.1402 26.6979V26.7879L39.1102 26.8178H38.8104C38.5244 26.6889 38.2344 26.5689 37.9409 26.458L37.4612 26.488C37.3712 26.488 37.3113 26.458 37.2813 26.3681L37.2513 26.2782C37.2432 26.2418 37.2218 26.2097 37.1913 26.1882H37.0714C36.4718 26.2782 35.8122 26.3081 35.1525 26.2182C35.0933 26.2105 35.0331 26.2206 34.9797 26.2473C34.9263 26.274 34.8821 26.3161 34.8527 26.3681C34.4667 27.1227 33.9251 27.7869 33.2637 28.3169C33.0538 28.4669 32.8139 28.5568 32.5441 28.6168C32.4719 28.65 32.4099 28.7017 32.3642 28.7667C31.9744 29.1864 31.6146 29.0665 31.075 29.0665C30.4753 29.0665 29.9356 29.0665 29.366 29.0065C29.2496 28.9267 29.1161 28.8753 28.9762 28.8566C28.9462 28.8566 28.9162 28.8566 28.8863 28.7967L28.8263 28.7067C28.7742 28.165 28.5999 27.6422 28.3166 27.1776C28.3013 27.1511 28.2795 27.129 28.2533 27.1132C28.2271 27.0975 28.1973 27.0887 28.1667 27.0877C28.1329 27.0915 28.1009 27.1047 28.0744 27.126C28.0479 27.1472 28.0279 27.1755 28.0168 27.2076L27.657 28.0771L27.567 28.167C27.5318 28.1915 27.49 28.2047 27.4471 28.2047C27.4042 28.2047 27.3624 28.1915 27.3272 28.167C27.2927 28.1508 27.2634 28.1254 27.2423 28.0937C27.2211 28.062 27.209 28.0252 27.2072 27.9871L27.1473 27.4475C27.1378 27.3555 27.1176 27.265 27.0873 27.1776L26.8774 26.6679C26.8659 26.6485 26.8601 26.6262 26.8607 26.6036C26.8613 26.581 26.8683 26.5591 26.8808 26.5403C26.8934 26.5215 26.911 26.5066 26.9316 26.4973C26.9522 26.4881 26.975 26.4849 26.9974 26.488H27.1173C27.1773 26.488 27.2372 26.488 27.2372 26.3981L27.7169 25.3787C27.7884 25.2612 27.8263 25.1264 27.8263 24.9889C27.8263 24.8514 27.7884 24.7166 27.7169 24.5991C27.657 24.5392 27.627 24.5392 27.567 24.5991C27.0873 24.9589 26.7275 25.3787 26.4277 25.7685C26.3078 25.8884 26.2478 25.8884 26.2178 25.7085C26.2178 25.6785 26.2178 25.6185 26.1579 25.5886C26.1279 25.5586 26.0679 25.5286 26.008 25.5886C25.4083 25.8584 24.9586 26.1882 24.6588 26.578C24.5299 26.7609 24.3375 26.8891 24.1191 26.9378C24.0291 26.9378 23.9991 26.9378 24.0291 26.8478L24.299 26.2482C24.4189 25.9484 24.5988 25.6485 24.7787 25.4087C24.8686 25.2588 24.8386 25.1088 24.6887 24.9889H24.5388L23.7893 25.6485C23.7893 25.5886 23.8193 25.5286 23.8792 25.4986C24.179 25.1988 24.3889 24.839 24.5388 24.3593C24.6887 24.3593 24.7787 24.3593 24.8087 24.2394C24.8686 23.9395 24.9886 23.7297 25.1385 23.5198L25.7381 23.0701C26.1579 22.6803 26.1878 22.1406 26.6676 21.8708C26.7043 21.8495 26.7348 21.8189 26.7559 21.782C26.777 21.7452 26.7879 21.7034 26.7875 21.6609C26.7875 20.9713 27.0274 20.4016 27.4471 19.9219C27.687 19.6521 27.7469 19.3223 27.687 19.0224C27.691 18.9794 27.6817 18.9361 27.6602 18.8985C27.6388 18.8609 27.6062 18.8309 27.567 18.8126C27.3551 18.7054 27.1625 18.5635 26.9974 18.3928C26.9496 18.343 26.886 18.3113 26.8175 18.3029C26.3977 18.2429 26.0979 18.3029 25.918 18.4228C25.3783 18.8426 24.8386 19.1724 24.329 19.4422C23.6693 19.802 23.6094 19.742 24.1191 19.1424L24.5388 18.7226C24.6556 18.6072 24.7385 18.4621 24.7787 18.3029C24.9334 17.652 25.0933 17.0024 25.2584 16.354L25.3184 16.2941C25.3531 16.2633 25.3745 16.2203 25.3783 16.1741L25.4083 14.2853C25.4083 14.4651 25.4383 14.645 25.4983 14.765C25.5882 14.9748 25.7081 15.0948 25.8281 15.1847C25.876 15.1969 25.9191 15.2236 25.9513 15.2611C25.9835 15.2987 26.0033 15.3453 26.008 15.3946C26.0062 15.4326 25.9941 15.4695 25.9729 15.5012C25.9518 15.5329 25.9225 15.5582 25.888 15.5745C25.4383 15.7544 25.4983 16.2641 25.7381 16.5639C25.978 16.8337 26.1279 17.1336 26.1878 17.4634C26.1878 17.5833 26.2478 17.6732 26.3677 17.7032C26.9074 18.0031 27.4471 18.063 27.9568 17.9131C28.7663 17.9131 29.0362 17.8232 28.7663 17.6133C29.8157 17.7032 30.8651 17.8531 31.7945 18.063L32.694 18.1829C33.2637 18.1829 33.7734 18.3029 34.343 18.3628C34.9127 18.4228 35.4823 18.5427 35.992 18.2729C36.2919 18.123 36.5317 17.9431 36.7116 17.6732C37.1014 17.6732 37.4012 17.5833 37.6111 17.3734C37.8045 17.2173 37.976 17.0358 38.1208 16.8337C38.1496 16.784 38.191 16.7427 38.2407 16.7138C38.7019 16.5222 39.0684 16.1556 39.2601 15.6944C39.38 15.3646 39.3201 15.0048 39.3201 14.675L39.41 14.4951C39.8598 13.9854 40.9091 14.1054 41.4188 14.3452L41.3889 14.3752Z" fill="#C89539"/>
<path d="M41.3887 14.3747C41.7785 14.5845 42.0783 14.9743 42.2282 15.544C42.6895 16.8714 42.8332 18.2885 42.648 19.6815C42.4696 20.6194 42.2997 21.5589 42.1383 22.4999C42.1315 22.5262 42.1159 22.5495 42.0941 22.5659C42.0723 22.5822 42.0456 22.5907 42.0184 22.5898L41.9584 22.5598L41.9284 22.4999C41.8427 22.2414 41.66 22.0264 41.4187 21.9002C41.3895 21.8817 41.3676 21.8537 41.3567 21.821C41.3458 21.7882 41.3465 21.7526 41.3588 21.7203L41.4187 21.6604C41.5986 21.5104 41.7185 21.3006 41.7185 21.0607C41.7785 20.521 41.8385 20.0113 41.9584 19.5316C42.0483 19.0219 41.9884 18.4523 41.8085 17.8226C41.6886 17.3429 41.2088 16.8632 41.2688 16.3535L41.2988 15.7239C41.2988 15.3641 41.1189 15.1242 41.0889 14.7644C41.0889 14.5246 41.1789 14.4047 41.3887 14.3747ZM27.9267 17.9426C27.3897 18.0791 26.8208 18.004 26.3377 17.7327C26.2908 17.7098 26.2501 17.6761 26.2189 17.6344C26.1876 17.5927 26.1667 17.5442 26.1578 17.4928C26.0997 17.1553 25.9432 16.8423 25.708 16.5934C25.4682 16.2935 25.4082 15.7838 25.8579 15.6039C25.8924 15.5877 25.9217 15.5623 25.9428 15.5306C25.964 15.4989 25.9761 15.4621 25.9779 15.4241C25.9819 15.381 25.9726 15.3377 25.9511 15.3001C25.9297 15.2625 25.8971 15.2325 25.8579 15.2142C25.7115 15.1141 25.6052 14.9654 25.5581 14.7944V14.5845C25.5572 14.5573 25.5657 14.5306 25.582 14.5088C25.5984 14.487 25.6217 14.4714 25.6481 14.4646C25.6689 14.4583 25.6911 14.4577 25.7122 14.463C25.7333 14.4682 25.7526 14.4792 25.768 14.4946C26.0678 14.7944 26.2477 15.1542 26.2777 15.574C26.3077 15.8138 26.3676 16.0537 26.5175 16.2935C26.8831 16.9243 27.3606 17.4831 27.9267 17.9426Z" fill="#85511C"/>
<path d="M37.4011 18.5123L37.521 18.4824C37.7609 18.4524 37.8209 18.5423 37.7909 18.7522C37.7909 18.8122 37.7309 18.8421 37.671 18.9021C37.4111 19.0867 37.1974 19.3289 37.0466 19.6098C36.8957 19.8906 36.8119 20.2025 36.8015 20.5212C36.8015 21.0608 37.1613 21.3307 37.1313 21.8404V21.9003C37.1146 21.9236 37.0916 21.9416 37.0651 21.9522C37.0385 21.9629 37.0095 21.9657 36.9814 21.9603C36.8314 21.9603 36.7415 21.8704 36.6815 21.7504C36.6114 21.4704 36.4894 21.206 36.3217 20.9709C36.2957 20.9191 36.2536 20.877 36.2018 20.851C36.1114 20.8296 36.028 20.7853 35.9597 20.7223C35.8914 20.6592 35.8405 20.5796 35.8121 20.4912C35.5845 20.2689 35.3546 20.0491 35.1225 19.8316C35.0666 19.7897 35.0213 19.7353 34.99 19.6729C34.9588 19.6105 34.9426 19.5416 34.9426 19.4718C34.9417 19.4445 34.9501 19.4178 34.9665 19.396C34.9828 19.3742 35.0061 19.3586 35.0325 19.3518C35.0507 19.3413 35.0714 19.3358 35.0925 19.3358C35.1135 19.3358 35.1342 19.3413 35.1524 19.3518C35.4223 19.5317 35.6921 19.5917 35.962 19.5617C36.0519 19.5617 36.1119 19.5617 36.1419 19.5018L37.3711 18.5123H37.4011Z" fill="#B87C29"/>
<path d="M40.6393 20.5205C40.1896 21.3301 39.56 22.1995 38.7504 22.6193C38.7329 22.6298 38.7133 22.6365 38.6931 22.6391C38.6728 22.6418 38.6522 22.6402 38.6325 22.6346C38.6129 22.629 38.5946 22.6194 38.5788 22.6065C38.5629 22.5935 38.5499 22.5775 38.5406 22.5593L38.3906 22.3495C38.3646 22.3103 38.3287 22.2786 38.2867 22.2576C38.2446 22.2365 38.1978 22.2269 38.1508 22.2295L37.4912 22.3195C37.465 22.3163 37.4402 22.3064 37.4192 22.2906C37.3981 22.2748 37.3816 22.2537 37.3712 22.2295V22.0796C37.761 21.7198 38.1808 21.3001 38.3607 20.8204C38.4506 20.5205 38.6305 20.2807 38.9003 20.1008L38.9303 20.0408V19.9809C38.9253 19.9589 38.9142 19.9389 38.8983 19.923C38.8824 19.9071 38.8623 19.896 38.8404 19.8909H38.4806L38.3607 19.8309C38.326 19.8002 38.3045 19.7572 38.3007 19.711C38.3007 19.6211 38.3607 19.5311 38.4506 19.4412C38.6026 19.3249 38.7432 19.1944 38.8704 19.0514C38.9903 18.9015 39.1702 18.8715 39.3501 18.9015C39.7398 18.9615 40.1596 18.9914 40.5793 18.9615C40.6442 18.9615 40.7073 18.9825 40.7592 19.0214C40.8146 19.0569 40.8567 19.1096 40.8792 19.1713C40.9691 19.3812 40.9691 19.5911 40.9391 19.771C40.8817 20.0358 40.7804 20.2892 40.6393 20.5205Z" fill="#85511C"/>
<path d="M27.2968 22.5006C27.5066 21.841 27.8065 21.1214 28.1962 20.3418C28.2562 20.2819 28.3162 20.2519 28.4061 20.2819C28.526 20.3418 28.586 20.4318 28.556 20.5817C28.526 21.0914 28.3162 21.6311 27.9564 22.1408C27.6566 22.6505 27.6566 23.1902 27.5066 23.7598C27.4963 23.784 27.4798 23.8051 27.4587 23.8209C27.4377 23.8366 27.4128 23.8466 27.3867 23.8498C27.2968 23.8498 27.2368 23.8498 27.2068 23.7898C27.1282 23.643 27.0968 23.4754 27.1169 23.3101C27.1169 23.0402 27.2068 22.7704 27.2968 22.5006Z" fill="#B87C29"/>
<path d="M30.8652 24.8092L29.9058 25.4088C29.636 25.5287 29.3961 25.5287 29.1862 25.4088C28.8265 25.2589 28.7965 24.7792 28.7365 24.4194C28.7065 24.2695 28.7065 24.1196 28.7365 23.9996L28.9164 23.2801C28.9764 22.6804 29.546 22.2607 30.0857 21.9908C30.5654 21.751 31.0451 21.8409 31.4949 22.2307C32.1245 22.8303 31.8547 23.6099 31.7047 24.3295C31.7047 24.3894 31.6448 24.4494 31.5548 24.4494C31.2934 24.4955 31.0526 24.6211 30.8652 24.8092Z" fill="#E1B051"/>
<path d="M25.1684 23.5489C25.0168 23.7674 24.9051 24.011 24.8386 24.2685C24.8386 24.3584 24.7187 24.4184 24.5688 24.3884C24.3889 23.6089 23.8792 23.1891 23.0696 23.1891C23.6093 22.9493 24.0291 22.6494 24.3889 22.2297C24.5088 22.0798 24.6587 21.9898 24.8086 21.9898C24.8711 21.9847 24.9337 21.9993 24.9875 22.0315C25.0412 22.0638 25.0836 22.1121 25.1084 22.1697C25.1266 22.2072 25.1369 22.248 25.1384 22.2896L25.1684 23.5489ZM41.059 24.3284C41.4488 24.2985 41.6586 24.0286 41.7786 23.6089C41.7805 23.5858 41.7912 23.5643 41.8085 23.5489C41.8222 23.541 41.8377 23.5369 41.8535 23.5369C41.8693 23.5369 41.8848 23.541 41.8985 23.5489H41.9585L42.0784 23.6688V23.7888C41.9768 24.584 41.9367 25.3859 41.9585 26.1873C41.9585 26.3672 41.8685 26.3972 41.7486 26.2773C41.5987 26.1574 41.5087 25.8875 41.4488 25.4977C41.4431 25.4284 41.4109 25.364 41.3588 25.3179C41.029 25.048 40.6692 24.9581 40.5793 24.4784C40.5137 24.1381 40.5227 23.7878 40.6055 23.4513C40.6883 23.1149 40.843 22.8004 41.059 22.5295L41.119 22.4695H41.1789V22.5295L40.999 23.0992C40.969 23.1591 40.999 23.2491 41.059 23.309C41.2089 23.429 41.2689 23.5489 41.2389 23.7288C41.2227 23.8016 41.1799 23.8657 41.119 23.9087C41.0325 23.96 40.9603 24.0321 40.9091 24.1186C40.8968 24.1509 40.8961 24.1864 40.907 24.2192C40.9179 24.252 40.9398 24.28 40.969 24.2985H41.059V24.3284Z" fill="#B87C29"/>
<path d="M23.0696 23.1893C23.8791 23.1893 24.3888 23.609 24.5687 24.3886C24.4408 24.8146 24.2149 25.2048 23.9091 25.5279L23.0995 25.7078C22.5299 25.1681 22.4399 24.5085 22.8597 23.8189V23.7889H22.7697C22.6554 23.9523 22.5133 24.0943 22.35 24.2087C22.26 24.2087 22.2301 24.2087 22.2301 24.1487C22.38 23.579 22.6798 23.2492 23.0696 23.1893Z" fill="#0B0802"/>
<path d="M21.8704 24.6582L21.8404 24.7781C21.7309 24.9021 21.5986 25.0039 21.4506 25.0779C21.366 25.1031 21.2915 25.1543 21.2377 25.2243C21.1838 25.2943 21.1534 25.3795 21.1508 25.4677C21.1508 25.7675 21.1208 26.0673 21.0309 26.3372C20.911 26.8469 21.0908 27.1767 21.5706 27.2966C21.8104 27.3266 21.9903 27.2966 22.1102 27.0867C22.3596 26.7691 22.63 26.4686 22.9198 26.1873L23.0997 26.1273C23.2796 26.1273 23.2796 26.2472 23.0997 26.4871C22.7908 26.758 22.481 27.0279 22.1702 27.2966C22.0304 27.4067 21.9089 27.5382 21.8104 27.6864L21.5106 28.1361L20.7011 28.4359V28.376C20.7011 28.346 20.7311 28.316 20.791 28.316C20.791 28.316 20.851 28.316 20.881 28.256V28.2261C20.6898 27.5438 20.6388 26.8298 20.7311 26.1273L20.911 25.4677C21.0009 25.1979 21.0309 24.958 21.0309 24.6882C21.0396 24.4645 20.9766 24.2438 20.851 24.0585C20.8309 24.0297 20.8039 24.0063 20.7725 23.9906C20.7411 23.9749 20.7062 23.9673 20.6711 23.9686C20.3413 23.9686 20.1314 24.1185 20.0415 24.3584C19.9497 24.5986 19.8179 24.8217 19.6517 25.018C19.4863 25.2369 19.3549 25.4794 19.2619 25.7375C19.082 26.2173 18.8422 26.667 18.5723 27.0568C18.5723 27.1167 18.4524 27.2067 18.3025 27.3566C18.2491 27.4118 18.208 27.4779 18.1822 27.5503C18.1563 27.6226 18.1462 27.6997 18.1526 27.7763C18.1526 27.8363 18.1526 27.8963 18.0926 27.9562C18.0059 28.0669 17.9632 28.2057 17.9727 28.346C17.9727 28.406 18.0027 28.4359 18.0926 28.406H18.2425C18.6087 28.6256 19.0017 28.7969 19.4118 28.9157C19.4305 28.9296 19.4456 28.9477 19.456 28.9685C19.4664 28.9894 19.4718 29.0123 19.4718 29.0356V29.0955C19.2211 29.6282 19.1176 30.2183 19.172 30.8045C19.2319 31.4641 19.3819 32.0038 19.6217 32.4536C19.6517 32.5135 19.7117 32.5735 19.8016 32.6035C19.8916 32.6335 19.9215 32.6035 19.9215 32.5435L19.9515 32.3336L20.4612 33.1432C19.9815 33.9227 20.3713 34.6123 20.7011 35.3019C20.7256 35.3546 20.7357 35.4129 20.7305 35.4708C20.7252 35.5287 20.7047 35.5842 20.6711 35.6317C20.3828 36.0274 20.0019 36.3465 19.5618 36.5611C19.202 36.741 18.8722 36.5611 18.6623 36.2913L18.5124 36.2013H18.3025C18.1226 36.2913 18.0027 36.2613 17.9127 36.0514C17.6729 35.2719 17.433 34.4624 17.2231 33.5929C16.8448 32.0396 16.9494 30.4079 17.523 28.9157C17.7029 28.5259 17.8228 28.1061 17.8827 27.6564C18.0104 27.035 18.2117 26.4311 18.4824 25.8575C18.5322 25.8096 18.564 25.7461 18.5723 25.6776C18.5723 25.5576 18.6323 25.4377 18.8122 25.3178C19.2919 25.1079 19.6217 24.7181 19.7117 24.1785C19.7341 24.1167 19.7763 24.064 19.8316 24.0285C20.2214 23.6688 20.4912 23.5189 20.7011 23.4889C21.5406 23.3989 21.9004 23.7887 21.9004 24.6582H21.8704Z" fill="#EFE2AD"/>
<path d="M23.1297 25.7376C22.2302 25.6177 21.9903 25.108 22.3501 24.1785C22.53 24.0886 22.6499 23.9387 22.7699 23.7588H22.8298V23.8187C22.4701 24.5083 22.53 25.1679 23.1297 25.7376Z" fill="#FCF9F5"/>
<path d="M20.7012 28.4369C20.6176 28.4826 20.5536 28.5572 20.5213 28.6468C20.3702 28.7809 20.2653 28.9593 20.2215 29.1565C20.2515 28.8567 20.0716 28.8567 19.7418 29.1565C19.292 29.5163 19.1421 30.2659 19.1421 30.8055C19.071 30.1896 19.1749 29.5661 19.4419 29.0066C19.4419 28.9742 19.4314 28.9426 19.412 28.9167L19.352 28.8867C18.964 28.7727 18.5914 28.6116 18.2426 28.407C18.2199 28.3938 18.194 28.3869 18.1677 28.3869C18.1414 28.3869 18.1155 28.3938 18.0927 28.407C18.0028 28.407 17.9728 28.407 17.9728 28.347C17.9728 28.1971 18.0028 28.0472 18.0927 27.9572C18.1338 27.9065 18.1551 27.8426 18.1527 27.7773C18.1527 27.5974 18.2127 27.4775 18.3026 27.3576L18.6024 27.0578C18.8423 26.668 19.0822 26.2183 19.262 25.7385C19.382 25.4387 19.5019 25.2288 19.6518 25.019C19.8317 24.8391 19.9516 24.5992 20.0416 24.3594C20.1315 24.1195 20.3414 23.9696 20.6412 23.9696C20.7312 23.9696 20.7911 23.9696 20.8511 24.0595C20.971 24.2394 21.031 24.4493 21.031 24.6592C21.031 24.959 21.001 25.1989 20.9111 25.4687L20.7312 26.1283C20.6348 26.8407 20.6858 27.5652 20.8811 28.257C20.8511 28.317 20.8211 28.317 20.7911 28.317C20.7312 28.317 20.7012 28.317 20.7012 28.377V28.4369Z" fill="#FAF2CD"/>
<path d="M22.2304 24.0896C22.2304 24.1496 22.2604 24.1796 22.3503 24.1796C21.9905 25.079 22.2304 25.6187 23.1299 25.7087L23.9094 25.5288C23.8652 25.5687 23.8339 25.6209 23.8195 25.6787C23.6303 25.8975 23.3795 26.0542 23.0999 26.1284L22.92 26.1584C22.2004 26.1584 21.8706 25.3789 21.8406 24.7792L21.8706 24.6593C22.0505 24.4794 22.1704 24.2995 22.2304 24.1196V24.0896Z" fill="#5B4F40"/>
<path d="M23.8488 24.1788C23.7888 24.2688 23.7888 24.3887 23.8488 24.4187C23.9088 24.4787 24.0287 24.4187 24.0887 24.3287C24.1786 24.2388 24.1486 24.1488 24.0887 24.0889C24.0287 24.0289 23.9088 24.0889 23.8488 24.1788Z" fill="#FCF9F5"/>
<path d="M29.3662 29.0064C29.2162 29.0064 29.1563 29.0364 29.1563 29.1863C29.1563 29.606 29.1563 29.9958 29.0364 30.3556C28.9798 30.5506 28.9495 30.7522 28.9464 30.9552C28.9464 31.375 28.7965 31.6748 29.0064 32.1545V33.1739C29.348 33.6476 29.7081 34.1077 30.0857 34.5531C30.5055 34.9729 30.5355 35.4226 30.1757 35.8423C29.8759 36.2021 29.666 36.5319 29.1863 36.6219C28.4967 36.7718 27.897 37.0116 27.3573 37.3414C26.9676 37.6113 26.4879 37.7012 26.0681 37.8511C25.7683 37.9411 25.7683 38.061 26.0681 38.181L27.0275 38.6007C27.927 38.9905 28.8265 39.0205 29.8159 38.8406C30.4455 38.7206 30.7154 38.061 31.0452 37.5813C31.345 37.1316 31.9746 37.1316 32.4243 36.7418C32.7242 36.442 33.1439 36.1721 33.6236 35.9323C33.6846 35.8893 33.7274 35.8252 33.7436 35.7524C33.8635 35.4526 33.9834 35.0928 34.3132 34.8829C35.0928 34.4032 35.8123 34.0434 36.5619 33.8035C37.2215 33.5637 37.7912 33.2039 38.4508 32.9041C38.4683 32.8936 38.4879 32.8869 38.5081 32.8842C38.5284 32.8816 38.549 32.8831 38.5687 32.8887C38.5883 32.8944 38.6066 32.9039 38.6224 32.9169C38.6383 32.9298 38.6513 32.9459 38.6607 32.964C38.7206 33.054 38.7206 33.114 38.6607 33.2039C38.3309 33.7436 38.061 34.3432 37.5213 34.763L36.0222 35.9623C35.7224 36.2621 35.7224 36.8018 35.6624 37.1616C35.6324 37.5513 35.3926 37.8811 35.0028 38.181L33.8035 38.9305C33.5637 39.0504 33.5337 39.2303 33.7436 39.3802C33.7989 39.4367 33.8744 39.4691 33.9534 39.4702C34.0284 39.4631 34.1034 39.4845 34.1633 39.5302L34.763 40.0399V40.0998C34.7735 40.118 34.779 40.1387 34.779 40.1598C34.779 40.1808 34.7735 40.2015 34.763 40.2197L34.703 40.2497C33.9534 40.3996 33.2039 40.5495 32.9041 41.3291C32.8905 41.3734 32.8919 41.4209 32.9082 41.4643C32.9245 41.5077 32.9546 41.5445 32.994 41.5689L33.084 41.6289C33.2039 41.6289 33.3238 41.6289 33.4737 41.5689C34.0134 41.2691 34.673 41.0592 35.2727 41.2691C35.6324 41.419 35.9922 41.509 36.352 41.509C36.7118 41.509 37.0416 41.6289 37.3414 41.8688C37.4014 41.8988 37.4614 41.9287 37.5513 41.8988C37.699 41.8889 37.8378 41.8249 37.9411 41.7189C38.091 41.9287 38.4808 42.0187 39.0504 41.9587C39.2603 41.9587 39.4102 41.8088 39.5901 41.7189L41.3291 40.6695C41.539 40.5196 41.7188 40.4896 41.9287 40.6395H42.0786C42.6783 40.4296 42.7982 39.9799 43.098 39.5002C43.1305 39.4461 43.174 39.3995 43.2256 39.3634C43.2773 39.3272 43.336 39.3023 43.3979 39.2903C44.1174 39.1104 44.5971 38.4508 44.807 37.7912C44.8965 37.5342 45.0395 37.2991 45.2268 37.1016C45.4666 36.8318 45.5866 36.5019 45.6165 36.1122C45.6165 36.0222 45.6165 35.9623 45.5266 35.9023C45.3767 35.7524 45.3467 35.6025 45.3767 35.3926C45.4372 35.2018 45.4525 34.9995 45.4213 34.8017C45.39 34.6039 45.3132 34.4162 45.1968 34.2533C45.147 34.2055 45.1152 34.1419 45.1068 34.0734L45.1368 31.9446L45.7365 33.7436C46.5215 35.4275 46.7524 37.317 46.3961 39.1404C46.2761 38.8406 46.1262 38.9005 45.9763 39.3802C45.8264 39.8899 45.8564 40.2797 45.5866 40.7594C45.4018 41.1331 45.2996 41.5421 45.2867 41.9587L45.1068 43.7577C45.1068 44.0575 44.9269 44.2973 44.6271 44.4472C44.5606 44.4773 44.5073 44.5306 44.4772 44.5972C44.3573 44.837 44.3273 45.0469 44.1174 45.2568C43.7277 45.6166 42.8582 46.3961 42.7083 46.9358C42.6483 47.2356 42.4084 47.3555 42.1386 47.4755C42.3185 47.2656 42.4384 47.0257 42.4984 46.7559C42.5583 46.3361 42.6183 46.0963 42.6783 46.0063L43.128 45.1069C43.6977 44.2074 43.4878 43.128 43.3679 42.1086C43.3554 42.0501 43.3237 41.9973 43.2779 41.9587C43.2301 41.9089 43.1666 41.8771 43.098 41.8688C42.6478 41.8308 42.195 41.9028 41.7788 42.0786C41.0293 42.3785 40.3996 42.6183 39.74 43.218C39.2603 43.6377 38.9605 44.2673 38.4508 44.5972C37.8511 44.9869 37.0416 45.4067 35.9922 45.7964C34.9129 46.2162 33.8335 46.6359 32.7542 46.9957L31.8547 47.4155C30.8053 48.0151 30.3256 49.0945 29.1263 49.3643C28.7665 49.4543 28.4067 49.6042 28.0769 49.844C27.6272 50.1439 27.0875 50.2338 26.5778 50.3238C25.9782 50.4437 25.4385 50.6836 24.8089 50.8035L23.0999 50.2038C22.4702 49.994 21.9006 49.7541 21.4508 49.4843C20.7613 49.1245 20.1616 48.7347 19.6519 48.4049C18.894 47.9108 18.1905 47.338 17.5532 46.6959C16.8935 46.0663 16.8935 45.2268 17.3133 44.4772C17.6131 43.6377 17.793 42.8882 17.823 42.1986L18.0029 39.8C18.0029 39.5901 18.1228 39.2003 18.3027 38.6007C18.5426 37.9111 18.5725 37.1915 18.3927 36.442C18.3927 36.352 18.3927 36.3221 18.4826 36.2921H18.6325C18.8724 36.5619 19.2022 36.7418 19.532 36.5919C19.9864 36.373 20.3783 36.043 20.6713 35.6325C20.6998 35.5885 20.7173 35.5383 20.7225 35.4862C20.7278 35.434 20.7205 35.3814 20.7013 35.3326C20.4015 34.6131 19.9817 33.9235 20.4614 33.1439C20.4614 33.2938 20.4614 33.4438 20.4015 33.5937C20.3715 33.7436 20.4015 33.8935 20.4614 34.0134L20.5214 34.1633C20.5814 34.4931 20.8212 34.763 21.121 34.9429C21.5708 35.1827 22.0205 35.3626 22.5002 35.5125C22.92 35.6325 23.3397 35.4826 23.6995 35.0328C23.9993 35.0328 24.509 35.1527 25.1986 35.3626C25.5884 35.4826 25.9482 35.3626 26.218 35.0928C27.2965 34.9986 28.3458 34.693 29.3062 34.1933V34.0734C29.3101 34.0571 29.3093 34.04 29.304 34.0241C29.2987 34.0082 29.2891 33.9942 29.2762 33.9834C29.2625 33.9755 29.247 33.9714 29.2312 33.9714C29.2154 33.9714 29.1999 33.9755 29.1863 33.9834C28.5566 34.1933 27.867 34.3132 27.1475 34.3432C26.8776 34.3432 26.6378 34.4332 26.3679 34.5231C25.9182 34.673 25.0487 34.2833 24.6589 34.0734C24.629 33.7736 24.7189 33.5937 24.9588 33.4438C25.0116 33.4056 25.053 33.3538 25.0787 33.2938C25.1387 33.1439 25.2586 33.084 25.4085 33.084C25.6184 33.114 25.9182 33.084 26.3679 32.994C26.6678 32.9341 26.7877 32.8141 26.7877 32.6342V32.5143C26.7583 32.4723 26.7163 32.4408 26.6678 32.4244C26.5752 32.3674 26.5021 32.2838 26.4579 32.1845C26.4279 32.1545 26.4579 32.1245 26.4879 32.0946H26.6078C26.6678 32.2145 26.7277 32.2744 26.8476 32.3044C26.9076 32.3344 26.9676 32.3044 27.0575 32.2445C27.2674 32.0946 27.3573 31.8247 27.3573 31.4649C27.5192 31.1981 27.7603 30.9885 28.0469 30.8653C28.1369 30.8653 28.1669 30.8053 28.1369 30.7154C28.0651 30.3497 27.8998 30.0088 27.6572 29.726C27.4173 29.4261 27.0275 29.3362 26.6977 29.0963C26.308 28.7965 25.7683 28.8265 25.3186 28.9764C25.2886 28.9764 25.2586 28.9764 25.2586 29.0364C25.2586 29.0963 25.2586 29.1263 25.1986 29.1263C25.0925 29.1292 24.989 29.1603 24.8988 29.2163C24.599 28.9164 24.2692 28.6766 23.8494 28.4667C23.1598 28.047 22.2903 28.1069 21.5408 28.1069L21.8406 27.6572C21.9006 27.5073 22.0205 27.3574 22.1704 27.2674C22.4812 26.9987 22.791 26.7289 23.0999 26.4579C23.2798 26.218 23.2798 26.0981 23.0999 26.0981C23.3997 26.0381 23.6395 25.8882 23.8194 25.6484L24.569 24.9888H24.7189C24.8688 25.1387 24.8988 25.2886 24.8089 25.4085C24.5087 25.8603 24.2574 26.3427 24.0593 26.8477C24.0593 26.9076 24.0593 26.9376 24.1492 26.9376C24.3676 26.889 24.56 26.7607 24.6889 26.5778C24.9887 26.1881 25.4385 25.8582 26.0381 25.5584L26.188 25.5884L26.248 25.7083C26.278 25.8882 26.338 25.8882 26.4579 25.7683C26.7577 25.3785 27.1175 24.9588 27.5972 24.569C27.6572 24.539 27.6872 24.539 27.7471 24.599C27.867 24.8688 27.897 25.1087 27.7471 25.3785C27.5672 25.6784 27.4173 26.0381 27.2674 26.3979C27.2674 26.4579 27.2074 26.4879 27.1475 26.4879H27.0275C27.0052 26.4847 26.9824 26.4879 26.9617 26.4972C26.9411 26.5064 26.9235 26.5213 26.911 26.5401C26.8985 26.5589 26.8915 26.5809 26.8909 26.6034C26.8903 26.626 26.8961 26.6483 26.9076 26.6678L27.1175 27.1775C27.1478 27.2648 27.1679 27.3553 27.1775 27.4473L27.2374 27.987C27.2374 28.047 27.2674 28.0769 27.3274 28.1069C27.3513 28.129 27.3799 28.1451 27.4111 28.1542C27.4423 28.1633 27.4752 28.165 27.5072 28.1591C27.5392 28.1533 27.5694 28.1402 27.5954 28.1207C27.6214 28.1012 27.6426 28.076 27.6572 28.047L28.017 27.1475C28.0322 27.121 28.054 27.0988 28.0803 27.0831C28.1065 27.0673 28.1363 27.0585 28.1669 27.0575C28.1974 27.0585 28.2273 27.0673 28.2535 27.0831C28.2797 27.0988 28.3015 27.121 28.3168 27.1475C28.6166 27.6272 28.7965 28.1369 28.8265 28.6766C28.8265 28.7066 28.8265 28.7365 28.8864 28.7665L28.9764 28.8265L29.3662 28.9764V29.0064Z" fill="#E0C06E"/>
<path d="M33.5634 26.3079C33.4332 26.3725 33.2889 26.4034 33.1436 26.3978C33.0837 26.3978 33.0237 26.3978 32.9637 26.4578C32.7239 26.6677 32.544 26.9375 32.2442 27.0574C31.8786 27.2297 31.4625 27.2617 31.0748 27.1474C30.7151 26.6077 30.6851 26.098 30.9549 25.6183C30.9614 25.5999 30.9737 25.5841 30.9899 25.5733C31.0061 25.5625 31.0254 25.5572 31.0449 25.5583C31.0643 25.5515 31.0854 25.5515 31.1048 25.5583C31.1948 25.6782 31.3147 25.7382 31.4346 25.7382C31.5845 25.7382 31.6145 25.7082 31.5546 25.5883C31.1648 24.6888 30.2353 25.6782 30.0555 26.038C29.8756 26.4878 30.0255 26.8775 30.5352 27.2373L30.5652 27.2973V27.4472L30.4452 27.4772C30.0555 27.3872 29.4858 27.3273 29.2459 26.9675C29.1342 26.7818 29.0532 26.5794 29.0061 26.3678C29.0061 26.2779 29.0061 26.2179 29.066 26.158L29.9055 25.4084L30.835 24.8088C31.5546 24.6289 32.1242 24.7188 32.544 25.0486C32.9322 25.3821 33.2749 25.7652 33.5634 26.1879V26.3079Z" fill="#0B0802"/>
<path d="M21.81 24.7784C21.8699 25.378 22.1997 26.1276 22.9193 26.1576C22.6285 26.4485 22.3581 26.7591 22.1098 27.087C21.9899 27.2669 21.81 27.3269 21.5701 27.2969C21.0904 27.177 20.9105 26.8472 21.0304 26.3375C21.1204 26.0376 21.1504 25.7378 21.1504 25.438C21.1504 25.2581 21.2703 25.1382 21.4502 25.0482C21.5981 24.9742 21.7305 24.8724 21.84 24.7484L21.81 24.7784Z" fill="#E1B051"/>
<path d="M31.1048 27.1479C31.0148 27.2379 30.8349 27.2678 30.5051 27.2379C30.0254 26.8781 29.8755 26.4883 30.0854 26.0386C30.2353 25.6788 31.1647 24.6894 31.5845 25.5888C31.6145 25.7088 31.5845 25.7687 31.4346 25.7388C31.3191 25.7293 31.2116 25.6756 31.1348 25.5888C31.124 25.576 31.1099 25.5663 31.0941 25.561C31.0782 25.5557 31.0611 25.555 31.0448 25.5589C31.0253 25.5578 31.006 25.563 30.9898 25.5738C30.9736 25.5846 30.9613 25.6004 30.9549 25.6188C30.655 26.0985 30.715 26.6082 31.0748 27.1479H31.1048Z" fill="#FCF9F5"/>
<path d="M41.0888 31.7349C40.6634 31.6597 40.2312 31.6296 39.7995 31.645H38.5103C37.6108 31.585 36.8013 31.7049 35.9918 32.0347C34.9186 32.4606 33.8679 32.9409 32.8437 33.4739C32.7237 33.4739 32.6038 33.4739 32.5138 33.4139C32.011 33.1666 31.4346 33.1132 30.8948 33.264C30.853 33.2851 30.8067 33.2961 30.7599 33.2961C30.713 33.2961 30.6668 33.2851 30.625 33.264C30.4477 33.1362 30.3121 32.9589 30.2352 32.7543C30.2038 32.6783 30.1492 32.6142 30.0792 32.5712C30.0092 32.5281 29.9274 32.5082 29.8454 32.5145C29.4557 32.5145 29.1858 32.4245 29.0059 32.1547C28.796 31.675 28.946 31.3751 28.946 30.9554C28.946 30.7455 28.9759 30.5356 29.0359 30.3557C29.1259 29.996 29.1558 29.6062 29.1558 29.1565C29.1558 29.0365 29.2158 28.9766 29.3657 29.0065L31.0747 29.0665C31.6144 29.0665 31.9742 29.1864 32.3639 28.7667C32.4133 28.7127 32.475 28.6715 32.5438 28.6468C32.8137 28.5568 33.0535 28.4669 33.2634 28.3169C33.9357 27.7901 34.4877 27.1256 34.8824 26.3681C34.9096 26.321 34.9491 26.2822 34.9966 26.2558C35.0441 26.2293 35.0979 26.2164 35.1523 26.2182C35.8119 26.3081 36.4415 26.2782 37.0711 26.1582H37.1911L37.251 26.2782V26.3681C37.311 26.458 37.371 26.488 37.4609 26.488L37.9406 26.458L38.1805 26.488L38.7801 26.7879C38.9001 26.8478 38.96 26.8478 39.08 26.8478C39.0973 26.8324 39.1081 26.811 39.1099 26.7879V26.6979L38.8401 26.3081V26.2182C38.8508 26.2053 38.8649 26.1957 38.8808 26.1904C38.8967 26.1851 38.9138 26.1843 38.9301 26.1882H39.6496C39.7396 26.1882 39.7696 26.2482 39.7696 26.3381L39.6496 26.8178C39.6496 26.8478 39.6496 26.8778 39.7096 26.8778H39.7696C39.8802 26.7304 39.9709 26.5691 40.0394 26.3981V26.3681C40.0559 26.3534 40.0772 26.3452 40.0994 26.3452C40.1215 26.3452 40.1428 26.3534 40.1593 26.3681H40.1893C40.2793 26.488 40.3392 26.608 40.3092 26.7579C40.3092 26.8178 40.3092 26.8478 40.3692 26.8778L40.8189 27.3875C40.8789 27.4175 40.8789 27.4774 40.8489 27.5374C40.669 27.8372 40.729 28.1371 41.0288 28.4369L41.0588 28.5568C41.0464 28.6423 41.0158 28.7241 40.9688 28.7967C40.759 29.0665 40.9389 29.4863 41.1487 29.6661C41.2087 29.6961 41.2087 29.7561 41.1487 29.7861C40.977 30.0123 40.873 30.2826 40.8489 30.5656C40.8489 30.6556 40.8489 30.7155 40.9389 30.7455L41.2387 30.9254L41.3286 31.1053C41.3286 31.3452 41.2387 31.555 41.0888 31.7349Z" fill="#FAF2CD"/>
<path d="M33.5632 26.3076C33.5632 26.3975 33.5032 26.4875 33.4432 26.5774C33.0535 26.9672 32.6037 27.4769 32.0641 27.6568C31.4344 27.8367 31.0147 27.5968 30.445 27.5068C30.4784 27.4925 30.5089 27.4722 30.535 27.4469C30.5949 27.4169 30.5949 27.3569 30.5649 27.297L30.535 27.237C30.8348 27.237 31.0147 27.237 31.0746 27.1471C31.4944 27.267 31.8842 27.237 32.2739 27.0571C32.5738 26.9372 32.7237 26.6673 32.9635 26.4575C33.0143 26.4164 33.0782 26.3951 33.1434 26.3975C33.2933 26.3975 33.4432 26.3675 33.5632 26.3076ZM21.5103 28.1365C22.2898 28.1365 23.1593 28.0765 23.8489 28.4963L23.6091 28.6462C23.4891 28.946 23.3092 29.0359 23.0094 28.946C22.3122 28.7263 21.5747 28.6648 20.8507 28.7661C20.7607 28.7661 20.6408 28.7661 20.5509 28.6462C20.5509 28.5862 20.6108 28.5262 20.7008 28.4363L21.5403 28.1365H21.5103Z" fill="#5B4F40"/>
<path d="M23.8493 28.4962C24.2691 28.7061 24.5989 28.9459 24.8987 29.2458L24.9887 29.4257C24.8987 29.8754 24.5689 30.6849 24.0892 30.9248C24.0108 30.9629 23.9475 31.0263 23.9093 31.1047C23.8712 31.1831 23.8078 31.2464 23.7294 31.2846L22.8 31.8842C22.4702 32.1241 21.9904 32.214 21.6606 32.0341C21.1509 31.7343 20.7312 31.3145 20.4014 30.7749V30.445C20.4614 30.3851 20.5513 30.3851 20.6113 30.445C20.7312 30.505 20.8211 30.505 20.9111 30.445C21.2109 30.3851 21.2109 30.2951 20.9111 30.2352C20.6786 30.1752 20.4631 30.0623 20.2815 29.9054C20.2054 29.6626 20.195 29.4039 20.2515 29.1558C20.2515 28.9759 20.3714 28.826 20.5513 28.6461C20.6412 28.7361 20.7612 28.796 20.8511 28.766C21.5707 28.6761 22.2903 28.7061 23.0098 28.9459C23.3097 29.0359 23.4896 28.9459 23.6095 28.6461L23.8493 28.4962Z" fill="#0B0802"/>
<path d="M27.3867 31.4948C27.3867 31.4348 27.3267 31.3449 27.1768 31.2549C27.1168 31.2549 27.0869 31.195 27.1168 31.105C27.1768 30.8951 27.1168 30.7152 26.937 30.5653L26.1574 29.6958C25.9595 29.4677 25.6791 29.3275 25.3779 29.3061C25.2879 29.3061 25.228 29.366 25.2579 29.486L24.9581 29.426L24.8982 29.2461C24.9884 29.1901 25.0918 29.1591 25.198 29.1562C25.228 29.1562 25.2579 29.1262 25.2579 29.0662C25.2579 29.0362 25.2579 29.0063 25.3179 29.0063C25.7676 28.8563 26.3073 28.7964 26.6971 29.1262C26.9969 29.366 27.4167 29.456 27.6565 29.7558C27.8964 30.0556 28.0763 30.3555 28.1362 30.7452C28.1362 30.8352 28.1362 30.8951 28.0463 30.9251C27.7707 31.0535 27.5407 31.2626 27.3867 31.5248V31.4948Z" fill="#EFE2AD"/>
<path d="M20.2212 29.1559C20.1912 29.4257 20.2212 29.6656 20.2812 29.9054L20.4011 30.7149V30.7749C19.7415 31.2546 19.5916 31.7943 19.9514 32.334V32.5439C19.9214 32.6038 19.8914 32.6338 19.8314 32.6038C19.7453 32.5815 19.6706 32.5281 19.6215 32.4539C19.3655 31.9389 19.2127 31.3786 19.1718 30.8049C19.1718 30.2652 19.2917 29.5157 19.7415 29.1559C20.0713 28.856 20.2512 28.856 20.2212 29.1559ZM27.387 31.4945C27.387 31.8543 27.267 32.0941 27.0571 32.274C26.9672 32.334 26.9072 32.364 26.8473 32.334C26.7273 32.334 26.6674 32.244 26.6074 32.1241H26.4875C26.4275 32.1241 26.4275 32.1841 26.4575 32.2141C26.4875 32.304 26.5774 32.3939 26.6674 32.4539L26.7573 32.5439L26.7873 32.6638C26.7873 32.8437 26.6374 32.9636 26.3676 33.0236C26.0568 33.1166 25.7307 33.1471 25.4081 33.1135C25.2938 33.0853 25.1866 33.0334 25.0936 32.9611C25.0006 32.8888 24.9239 32.7977 24.8684 32.6938C24.8479 32.6356 24.8479 32.5721 24.8684 32.5139C24.9017 32.2852 24.9017 32.053 24.8684 31.8243C24.8684 31.5544 24.9884 31.3146 25.1683 31.1347C25.2203 31.0886 25.2525 31.0241 25.2582 30.9548V29.4857C25.2582 29.3657 25.2582 29.3058 25.3781 29.3058C25.678 29.3657 25.9778 29.4557 26.1577 29.6955L26.9372 30.565C27.1171 30.7149 27.1771 30.8948 27.1171 31.1047C27.0871 31.1947 27.1171 31.2246 27.1771 31.2546C27.327 31.3446 27.4169 31.4345 27.387 31.4945Z" fill="#FCF9F5"/>
<path d="M24.9886 29.4258C25.1085 29.4858 25.1984 29.5158 25.2584 29.4858V30.9549L25.1684 31.1348C24.9886 31.3147 24.8686 31.5546 24.8686 31.8244C24.9018 32.0531 24.9018 32.2853 24.8686 32.514V32.6939C25.0185 32.9337 25.1684 33.0537 25.4083 33.1136C25.2584 33.1136 25.1385 33.1736 25.0785 33.3235C25.0785 33.3835 25.0185 33.4434 24.9586 33.4734C24.8572 33.535 24.7753 33.6239 24.7222 33.73C24.6692 33.8361 24.6472 33.955 24.6588 34.0731L23.6394 33.7133L22.62 33.3235C22.0408 33.102 21.4002 33.102 20.821 33.3235C20.6711 33.6233 20.7011 33.9232 20.881 34.163C21.0322 34.362 21.2419 34.5088 21.4806 34.5828C21.8104 34.6427 22.4101 34.7327 22.6499 34.9725C22.6799 35.0325 22.7399 35.0625 22.8298 35.0625H23.7293C23.3395 35.4822 22.9198 35.6321 22.53 35.5122C22.0405 35.3626 21.5681 35.1616 21.1208 34.9126C20.9724 34.8388 20.8418 34.7335 20.7382 34.604C20.6347 34.4746 20.5606 34.3241 20.5212 34.163C20.5098 34.11 20.4896 34.0593 20.4612 34.0131C20.4217 33.9515 20.3959 33.8822 20.3855 33.8098C20.3752 33.7373 20.3806 33.6635 20.4013 33.5934L20.4612 33.1436L19.9515 32.3341C19.5918 31.7944 19.7417 31.2547 20.4013 30.775C20.7011 31.3147 21.1508 31.7345 21.6605 32.0343C21.9903 32.2142 22.47 32.1242 22.7999 31.8844L23.7293 31.2847C23.8077 31.2466 23.871 31.1832 23.9092 31.1048C23.9487 31.0099 24.0242 30.9345 24.1191 30.8949C24.5388 30.6851 24.8986 29.8756 24.9886 29.4258ZM20.2813 29.9055C20.5212 30.0854 20.7311 30.2054 20.911 30.2054C21.2108 30.2953 21.2108 30.3853 20.911 30.4752C20.821 30.5052 20.7311 30.4752 20.6111 30.4452C20.5212 30.3853 20.4612 30.3853 20.4313 30.4452C20.4013 30.5052 20.3713 30.5951 20.4013 30.7151L20.2813 29.9055Z" fill="#968C78"/>
<path d="M23.1299 30.8653C23.3997 30.9852 23.6396 31.0152 23.6696 30.9553C23.6696 30.8953 23.4897 30.7454 23.2198 30.6554C22.92 30.5355 22.7101 30.5055 22.6802 30.5655C22.6502 30.6255 22.8601 30.7754 23.1299 30.8653Z" fill="#5B4F40"/>
<path d="M41.0891 31.735C40.8519 31.932 40.6714 32.1886 40.566 32.4783C40.4607 32.7681 40.4342 33.0807 40.4895 33.384V33.504L40.1596 34.0736C40.0997 34.1336 40.0397 34.1636 39.9798 34.0736L39.8898 34.0137L39.8298 33.9837H39.7399C39.62 34.0436 39.56 34.1336 39.59 34.2535C39.59 34.5833 39.6799 34.9431 39.7399 35.3029C39.7532 35.3844 39.7465 35.4679 39.7204 35.5463C39.6943 35.6246 39.6495 35.6954 39.59 35.7526C39.2002 36.1424 38.3607 36.862 38.3307 37.4316C38.3307 37.6715 38.2708 37.8514 38.1508 37.9713C37.9869 38.1496 37.7807 38.2837 37.5512 38.3611V38.451C37.5812 38.511 37.6411 38.541 37.7311 38.541C38.1508 38.451 38.5406 38.2412 38.9004 37.9114H38.9604L38.9903 37.9413V38.0013L38.4507 38.9008V39.0207C38.4507 39.2306 38.4507 39.4404 38.3907 39.6203C38.3802 39.6483 38.3806 39.6792 38.3917 39.7069C38.4028 39.7346 38.4238 39.7572 38.4507 39.7703H38.6006C38.7245 39.7187 38.8563 39.6883 38.9903 39.6803C39.0101 39.676 39.0304 39.6756 39.0503 39.6793C39.0701 39.6831 39.089 39.6908 39.1058 39.702C39.1226 39.7132 39.137 39.7276 39.1481 39.7445C39.1591 39.7614 39.1667 39.7804 39.1702 39.8002C39.1948 39.973 39.1747 40.1492 39.1117 40.3119C39.0487 40.4747 38.945 40.6185 38.8104 40.7297C38.5406 40.9695 38.2408 41.3293 37.911 41.7191C37.8153 41.8187 37.6883 41.8822 37.5512 41.899L37.3413 41.869C37.0632 41.638 36.7134 41.5108 36.3519 41.5092C35.9701 41.5014 35.5935 41.4199 35.2426 41.2694C34.6429 41.0595 34.0133 41.2694 33.4436 41.5692C33.3352 41.6329 33.2071 41.6542 33.0838 41.6292C33.0519 41.6206 33.0222 41.6055 32.9964 41.5848C32.9706 41.5642 32.9493 41.5385 32.9339 41.5092C32.9206 41.4811 32.9137 41.4504 32.9137 41.4193C32.9137 41.3882 32.9206 41.3574 32.9339 41.3293C33.1738 40.5498 33.9533 40.3999 34.7029 40.25C34.7248 40.2449 34.7449 40.2338 34.7608 40.2179C34.7767 40.202 34.7878 40.1819 34.7928 40.16C34.7992 40.1392 34.7998 40.117 34.7945 40.0959C34.7892 40.0748 34.7783 40.0555 34.7628 40.0401L34.1632 39.5304C34.1033 39.4847 34.0283 39.4633 33.9533 39.4704C33.8742 39.4693 33.7988 39.437 33.7434 39.3805C33.5336 39.2306 33.5636 39.0807 33.8034 38.9307L35.0027 38.1812C35.3925 37.8814 35.6023 37.5815 35.6623 37.1918C35.7223 36.802 35.7223 36.2623 36.0521 35.9925L37.5512 34.7632C38.0309 34.3435 38.3307 33.7438 38.6605 33.2041C38.685 33.1689 38.6982 33.1271 38.6982 33.0842C38.6982 33.0413 38.685 32.9995 38.6605 32.9643C38.6511 32.9461 38.6381 32.9301 38.6223 32.9171C38.6065 32.9042 38.5882 32.8946 38.5685 32.889C38.5489 32.8834 38.5283 32.8818 38.508 32.8845C38.4877 32.8871 38.4682 32.8939 38.4507 32.9043C37.791 33.2041 37.2514 33.5939 36.5618 33.8038C35.8422 34.0436 35.0627 34.4034 34.3131 34.8831C33.9833 35.093 33.8634 35.4228 33.7135 35.7826C33.691 35.8444 33.6489 35.897 33.5935 35.9325C33.1686 36.1631 32.767 36.4342 32.3942 36.742C31.9745 37.1318 31.3748 37.1318 31.045 37.5815C30.7452 38.0613 30.4454 38.7209 29.8458 38.8408C28.8264 39.0207 27.9569 38.9907 27.0274 38.6009L26.038 38.1812C25.7382 38.0613 25.7382 37.9413 26.038 37.8514C26.4877 37.7015 26.9375 37.6115 27.3572 37.3417C27.8969 37.0119 28.4966 36.742 29.1562 36.6221C29.6659 36.5322 29.9057 36.2024 30.1756 35.8426C30.5353 35.4228 30.4754 34.9731 30.0856 34.5533C29.7079 34.1079 29.3479 33.6478 29.0062 33.1742V32.1548C29.1861 32.4246 29.456 32.5445 29.8458 32.5145C29.927 32.5125 30.007 32.5341 30.0762 32.5767C30.1454 32.6193 30.2007 32.681 30.2355 32.7544C30.3255 32.9643 30.4454 33.1142 30.6253 33.2341C30.6647 33.26 30.7097 33.2762 30.7566 33.2814C30.8035 33.2866 30.851 33.2807 30.8951 33.2641C31.4349 33.1133 32.0113 33.1666 32.5142 33.414C32.6041 33.474 32.7241 33.474 32.814 33.474C32.9339 33.474 33.0539 33.414 33.1138 33.384C34.0133 32.9043 34.9727 32.4846 35.9921 32.0348C36.8016 31.735 37.6411 31.5851 38.5106 31.6451H39.7999C40.2196 31.6451 40.6693 31.6451 41.0891 31.735Z" fill="#E7CF90"/>
<path d="M24.6587 34.1032C25.0485 34.3131 25.918 34.7029 26.3677 34.553C26.6375 34.463 26.8774 34.3731 27.1472 34.3731C27.8612 34.362 28.5691 34.2407 29.246 34.0133C29.2602 34.0176 29.273 34.0253 29.2835 34.0358C29.2939 34.0462 29.3017 34.0591 29.306 34.0732V34.1332C29.3113 34.1613 29.3085 34.1904 29.2979 34.2169C29.2873 34.2435 29.2693 34.2665 29.246 34.2831C28.4065 34.6429 27.8368 34.8228 27.537 34.8828C26.8474 34.9427 26.4277 35.0327 26.2178 35.0926L25.2883 34.6729L24.2989 34.3731C23.0996 34.1632 21.9603 33.8034 20.821 33.3237C21.4206 33.1138 22.0203 33.1138 22.6199 33.3237C23.2986 33.586 23.9782 33.8458 24.6587 34.1032Z" fill="#0B0802"/>
<path d="M20.8211 33.3229C21.9604 33.8026 23.1297 34.1624 24.299 34.4023C24.6888 34.4623 25.0186 34.5822 25.2884 34.7021L26.2179 35.0919C25.9181 35.3917 25.6182 35.4817 25.2285 35.3617C24.5089 35.1518 24.0292 35.0619 23.7293 35.0619H22.8299C22.7399 35.0619 22.68 35.0319 22.65 34.972C22.4101 34.7321 21.8105 34.6721 21.4807 34.5822C21.2419 34.5082 21.0323 34.3614 20.881 34.1624C20.7011 33.9226 20.6712 33.6527 20.8211 33.3229Z" fill="#5B4F40"/>
<path d="M41.2986 40.6696L39.5896 41.719H39.3798L39.3498 41.629C39.3393 41.6108 39.3337 41.5901 39.3337 41.5691C39.3337 41.548 39.3393 41.5273 39.3498 41.5091L40.1593 40.3398C40.2792 40.1899 40.3092 40.04 40.3392 39.8601C40.3392 39.7701 40.2792 39.7102 40.1893 39.7102C39.5896 39.7102 39.6496 39.2005 39.5896 38.7507C39.5896 38.5709 39.6496 38.391 39.7695 38.301C40.669 37.6114 41.3886 36.8019 41.9882 35.9024C42.4679 35.1529 43.2475 34.7631 43.8171 34.1635C43.8278 34.1506 43.8419 34.141 43.8578 34.1357C43.8737 34.1304 43.8908 34.1296 43.9071 34.1335H43.997V34.1934C44.0298 34.7263 43.8583 35.2517 43.5173 35.6626C43.1275 36.1123 42.9476 36.592 42.6178 37.0717C42.5826 37.1357 42.572 37.2103 42.5879 37.2816C42.7078 37.8513 42.5879 38.301 42.288 38.6608C42.1062 38.8459 41.9545 39.0584 41.8383 39.2904C41.6284 39.7402 41.4785 40.1899 41.3586 40.6696H41.2986Z" fill="#B87C29"/>
<path d="M20.2514 38.4799C20.0715 38.5099 20.0715 38.6598 20.2514 38.9296L20.5513 39.2294C21.4507 39.979 21.9304 40.7285 23.1297 41.1783C23.1711 41.1932 23.2086 41.2171 23.2397 41.2482C23.2708 41.2793 23.2947 41.3168 23.3096 41.3582L23.5495 41.8979C23.6694 42.3476 23.9692 42.7074 24.389 43.0672C24.4193 43.0879 24.454 43.1014 24.4904 43.1066C24.5268 43.1118 24.5639 43.1086 24.5989 43.0971C24.6308 43.0886 24.6606 43.0735 24.6863 43.0528C24.7121 43.0322 24.7334 43.0065 24.7488 42.9772L24.8087 42.9172C24.82 42.9045 24.8338 42.8943 24.8493 42.8873C24.8649 42.8803 24.8817 42.8766 24.8987 42.8766C24.9157 42.8766 24.9325 42.8803 24.948 42.8873C24.9635 42.8943 24.9774 42.9045 24.9886 42.9172C25.5583 43.397 25.7682 44.6262 25.9481 45.3758L25.9781 45.4657C25.9949 45.4849 26.0157 45.5002 26.039 45.5107C26.0622 45.5212 26.0875 45.5266 26.113 45.5266C26.1385 45.5266 26.1637 45.5212 26.187 45.5107C26.2103 45.5002 26.231 45.4849 26.2479 45.4657C26.7576 44.9261 27.0874 44.3264 27.2073 43.5769C27.2073 43.5169 27.2673 43.4869 27.3572 43.4869H27.4172C27.4305 43.4929 27.4412 43.5036 27.4472 43.5169V43.8467C27.4472 43.9366 27.4472 43.9666 27.5371 43.9666C27.74 43.6085 27.9399 43.2487 28.1368 42.8873C28.2267 42.6474 28.4366 42.4675 28.7364 42.2876C29.3361 42.0178 29.9357 41.7779 30.4454 41.3882C30.88 41.0365 31.3527 40.7348 31.8546 40.4887C31.8584 40.4724 31.8577 40.4553 31.8524 40.4394C31.8471 40.4236 31.8375 40.4095 31.8246 40.3987H31.7047C32.1244 40.2188 32.4242 40.0989 32.6041 39.979C33.0539 39.6792 33.2338 39.8291 33.0838 40.3388C33.0239 40.6386 32.874 40.9984 32.7241 41.3282C32.6131 41.5732 32.4231 41.7739 32.1844 41.8979C31.4948 42.2576 31.075 42.8873 30.3854 43.1871C29.6059 43.5469 28.9763 44.1765 28.7364 44.986C28.4966 45.7056 28.0468 46.3052 27.6271 46.9349C27.2973 47.4446 26.4278 48.1941 25.7082 48.404C25.4877 48.4668 25.2761 48.5575 25.0786 48.6738C25.0583 48.6897 25.0344 48.7001 25.0089 48.7041C24.9835 48.708 24.9575 48.7053 24.9334 48.6963C24.9093 48.6873 24.8879 48.6722 24.8713 48.6525C24.8548 48.6328 24.8435 48.6092 24.8387 48.5839C24.7452 48.3537 24.6846 48.1115 24.6588 47.8643C24.5689 46.9649 24.299 46.0654 23.8793 45.106C23.7353 44.7902 23.5317 44.5051 23.2797 44.2665C22.3202 43.367 21.3908 42.4076 20.4313 41.4181C20.0116 40.9984 19.8317 40.5187 19.5319 40.009C19.2374 39.3406 19.1337 38.6039 19.232 37.8802L19.292 37.8203H19.4419L20.2514 38.4799Z" fill="#E1B051"/>
<path d="M20.251 38.4805L21.1505 39.1101L21.7501 39.6198C22.3498 40.2495 23.4891 40.5193 24.3586 40.7592C24.8683 40.8791 25.5579 40.9091 26.3674 40.9091C28.2051 40.8755 30.0384 40.7153 31.8541 40.4294C31.862 40.443 31.8662 40.4586 31.8662 40.4743C31.8662 40.4901 31.862 40.5056 31.8541 40.5193H31.7942C31.3444 40.7592 30.8947 41.029 30.445 41.3888C29.9353 41.7786 29.3056 42.0184 28.736 42.2883C28.4728 42.4128 28.2609 42.6247 28.1363 42.8879L27.6566 43.8773C27.6566 43.9373 27.5966 43.9673 27.5367 43.9673C27.4767 43.9673 27.4168 43.9373 27.4467 43.8473V43.5475C27.4483 43.5357 27.4462 43.5236 27.4409 43.513C27.4356 43.5023 27.4272 43.4934 27.4168 43.4876H27.3568C27.2668 43.4876 27.2069 43.4876 27.2069 43.5775C27.0869 44.3271 26.7571 44.9267 26.2474 45.4664L26.1575 45.5264C26.1338 45.5306 26.1096 45.5301 26.0861 45.5249C26.0626 45.5196 26.0405 45.5097 26.0209 45.4957C26.0013 45.4817 25.9848 45.464 25.9722 45.4435C25.9596 45.423 25.9512 45.4002 25.9476 45.3764C25.7677 44.6269 25.5579 43.3976 24.9882 42.9179L24.8982 42.8879H24.8083L24.7483 42.9779C24.7329 43.0071 24.7117 43.0328 24.6859 43.0535C24.6601 43.0741 24.6303 43.0892 24.5984 43.0978C24.5635 43.1092 24.5264 43.1124 24.49 43.1072C24.4536 43.102 24.4189 43.0886 24.3885 43.0678C24.0022 42.7668 23.7107 42.3608 23.549 41.8985C23.4785 41.7146 23.3985 41.5344 23.3092 41.3588C23.2942 41.3175 23.2704 41.2799 23.2393 41.2488C23.2082 41.2178 23.1706 41.1939 23.1293 41.1789C21.93 40.7292 21.4503 39.9796 20.5508 39.2301C20.439 39.1427 20.3383 39.0421 20.251 38.9303C20.0711 38.6604 20.0711 38.5105 20.251 38.4805Z" fill="#B87C29"/>
<path d="M46.3959 39.1396C46.4559 39.5893 46.5158 40.0091 46.6358 40.3988C46.7557 40.9985 46.7257 41.5082 46.7557 42.1078C46.7557 42.7075 46.9656 43.457 46.9956 44.1466V45.5258C46.9356 46.3653 45.2566 47.6845 44.3571 48.4341C43.6076 49.0937 42.888 49.3635 42.2284 49.3036C41.8686 49.0637 41.3289 49.0637 40.6993 49.3036C40.4894 49.3635 40.4894 49.3036 40.6093 49.1836C40.9092 48.8838 41.119 48.554 41.239 48.1043L41.3889 47.9244C41.6141 47.7368 41.8669 47.5851 42.1384 47.4746C42.4083 47.3547 42.6481 47.2048 42.7381 46.935C42.858 46.3953 43.7275 45.6157 44.1173 45.256C44.3271 45.0461 44.3571 44.8362 44.477 44.5963C44.5071 44.5298 44.5604 44.4765 44.627 44.4464C44.9268 44.2965 45.0767 44.0567 45.1067 43.7568L45.2566 41.9579C45.2778 41.5389 45.3904 41.1296 45.5864 40.7586C45.8862 40.2789 45.8262 39.8592 45.9762 39.3794C46.1261 38.8997 46.276 38.8398 46.3959 39.1396Z" fill="#C89539"/>
<path d="M42.1386 47.4759C41.8669 47.5859 41.614 47.7377 41.389 47.9256C41.3218 47.9688 41.2695 48.0316 41.2391 48.1055C41.1234 48.506 40.9184 48.875 40.6395 49.1849C40.4896 49.3348 40.4896 49.3648 40.6994 49.3048C41.3591 49.065 41.8688 49.065 42.2285 49.3048C42.2285 49.5147 42.1686 49.6946 42.0187 49.9045C41.88 50.0499 41.7035 50.1538 41.509 50.2043C40.6695 50.4741 39.8899 50.8039 39.2003 51.1338C38.6607 51.4036 38.091 51.4336 37.5213 51.5835C37.3414 51.6434 37.1615 51.5835 37.0116 51.7334C36.9828 51.7575 36.9492 51.7752 36.913 51.7855C36.8769 51.7959 36.839 51.7985 36.8018 51.7934C36.3829 51.74 35.9584 51.7501 35.5425 51.8233C35.1827 51.8833 34.7929 51.9433 34.4332 51.9433C31.9446 51.9433 29.3362 52.0332 26.8177 51.7934C26.4692 51.7705 26.1307 51.668 25.8283 51.4935C25.4849 51.2689 25.1451 51.039 24.8089 50.8039C25.4085 50.684 26.0081 50.4442 26.5478 50.3242C27.0875 50.2343 27.6272 50.1443 28.0769 49.8445C28.4067 49.6047 28.7665 49.4547 29.1263 49.3648C30.3256 49.095 30.8053 47.9856 31.8247 47.4159C32.1245 47.266 32.4243 47.1161 32.7242 47.0262L36.0222 45.8269C37.0416 45.4071 37.8511 44.9874 38.4508 44.6276C38.9605 44.2678 39.2603 43.6382 39.74 43.2184C40.3996 42.6188 41.0293 42.4089 41.7788 42.0791C42.195 41.9033 42.6478 41.8313 43.098 41.8692C43.1666 41.8776 43.2301 41.9094 43.2779 41.9592C43.3379 41.9892 43.3679 42.0491 43.3679 42.1091C43.4878 43.1285 43.6977 44.2078 43.128 45.1073L42.6783 46.0068C42.6183 46.0967 42.5583 46.3366 42.4984 46.7563C42.4422 47.0231 42.3183 47.2709 42.1386 47.4759Z" fill="#E7CF90"/>
</svg>
