<svg width="64" height="64" viewBox="0 0 64 64" fill="none" xmlns="http://www.w3.org/2000/svg">
<circle cx="32" cy="32" r="32" fill="black"/>
<path d="M22.5496 37.7912C22.7185 37.6218 22.9509 37.5229 23.1973 37.5229H45.5438C45.9521 37.5229 46.1563 38.017 45.8677 38.3064L41.4533 42.7318C41.2843 42.9012 41.052 43 40.8055 43H18.4591C18.0507 43 17.8465 42.5059 18.1352 42.2166L22.5496 37.7912Z" fill="url(#paint0_linear_2070_50)"/>
<path d="M22.5496 21.2682C22.7256 21.0988 22.9579 21 23.1973 21H45.5438C45.9521 21 46.1563 21.4941 45.8677 21.7834L41.4533 26.2089C41.2843 26.3782 41.052 26.4771 40.8055 26.4771H18.4591C18.0507 26.4771 17.8465 25.983 18.1352 25.6936L22.5496 21.2682Z" fill="url(#paint1_linear_2070_50)"/>
<path d="M41.4533 29.4767C41.2843 29.3073 41.052 29.2085 40.8055 29.2085H18.4591C18.0507 29.2085 17.8465 29.7026 18.1352 29.9919L22.5496 34.4174C22.7185 34.5867 22.9509 34.6856 23.1973 34.6856H45.5438C45.9521 34.6856 46.1563 34.1915 45.8677 33.9021L41.4533 29.4767Z" fill="url(#paint2_linear_2070_50)"/>
<defs>
<linearGradient id="paint0_linear_2070_50" x1="43.409" y1="18.3564" x2="27.8828" y2="48.0214" gradientUnits="userSpaceOnUse">
<stop stop-color="#00FFA3"/>
<stop offset="1" stop-color="#DC1FFF"/>
</linearGradient>
<linearGradient id="paint1_linear_2070_50" x1="36.6467" y1="14.817" x2="21.1204" y2="44.482" gradientUnits="userSpaceOnUse">
<stop stop-color="#00FFA3"/>
<stop offset="1" stop-color="#DC1FFF"/>
</linearGradient>
<linearGradient id="paint2_linear_2070_50" x1="40.0063" y1="16.5754" x2="24.4801" y2="46.2404" gradientUnits="userSpaceOnUse">
<stop stop-color="#00FFA3"/>
<stop offset="1" stop-color="#DC1FFF"/>
</linearGradient>
</defs>
</svg>
