<svg width="64" height="64" viewBox="0 0 64 64" fill="none" xmlns="http://www.w3.org/2000/svg">
<path d="M63.0422 39.7459C58.7677 56.8907 41.4029 67.3248 24.2561 63.0494C7.11627 58.7749 -3.31787 41.4091 0.958543 24.2652C5.23098 7.11839 22.5958 -3.31674 39.7377 0.957684C56.8835 5.23218 67.3166 22.6 63.0422 39.7459Z" fill="#F7931A"/>
<path d="M21.4749 37.3934C21.3009 37.8255 20.8598 38.4735 19.8657 38.2274C19.9008 38.2785 17.3135 37.5904 17.3135 37.5904L15.5703 41.6098L20.1397 42.749C20.9898 42.962 21.823 43.185 22.643 43.3951L21.1898 49.2297L24.6972 50.1048L26.1364 44.3321C27.0945 44.5921 28.0245 44.8321 28.9346 45.0582L27.5005 50.8038L31.0119 51.6789L32.465 45.8553C38.4527 46.9883 42.9551 46.5313 44.8503 41.1157C46.3775 36.7553 44.7744 34.24 41.624 32.5998C43.9183 32.0708 45.6464 30.5616 46.1075 27.4443C46.7445 23.1858 43.5021 20.8966 39.0687 19.3694L40.5068 13.6007L36.9954 12.7256L35.5953 18.3422C34.6722 18.1122 33.7241 17.8952 32.782 17.6801L34.1921 12.0265L30.6828 11.1514L29.2436 16.918C28.4795 16.744 27.7295 16.5719 27.0014 16.3909L27.0053 16.3729L22.1628 15.1637L21.2286 18.9142C21.2286 18.9142 23.834 19.5112 23.7789 19.5482C25.2011 19.9033 25.4581 20.8443 25.4152 21.5905L21.4749 37.3934ZM38.0846 38.6945C36.9995 43.0549 29.6577 40.6976 27.2775 40.1066L29.2057 32.3768C31.5859 32.9708 39.2187 34.147 38.0846 38.6945ZM39.1707 27.3813C38.1806 31.3478 32.0699 29.3326 30.0877 28.8385L31.8359 21.8277C33.8181 22.3217 40.2018 23.2438 39.1707 27.3813Z" fill="white"/>
</svg>
