<svg width="64" height="64" viewBox="0 0 64 64" fill="none" xmlns="http://www.w3.org/2000/svg">
<g clip-path="url(#clip0_2070_126)">
<path d="M32 60.5366C47.7603 60.5366 60.5366 47.7603 60.5366 32C60.5366 16.2397 47.7603 3.46344 32 3.46344C16.2397 3.46344 3.46344 16.2397 3.46344 32C3.46344 47.7603 16.2397 60.5366 32 60.5366Z" fill="white"/>
<path d="M32 0C25.671 0 19.4841 1.87677 14.2218 5.39297C8.95939 8.90918 4.85787 13.9069 2.43587 19.7541C0.013865 25.6014 -0.619842 32.0355 0.614885 38.2429C1.84961 44.4503 4.89732 50.1521 9.3726 54.6274C13.8479 59.1027 19.5497 62.1504 25.7571 63.3851C31.9645 64.6199 38.3986 63.9861 44.2459 61.5641C50.0931 59.1421 55.0908 55.0406 58.607 49.7782C62.1232 44.5159 64 38.329 64 32C64.0122 27.8099 63.199 23.6584 61.6068 19.7826C60.0147 15.9068 57.6747 12.3825 54.7204 9.41106C51.7662 6.43958 48.2557 4.07907 44.3892 2.46432C40.5227 0.84957 36.3761 0.0121923 32.186 0H32ZM32.5424 33.0847L29.2107 44.3196H47.0315C47.1495 44.3155 47.2672 44.3346 47.3779 44.376C47.4885 44.4174 47.5899 44.4802 47.6763 44.5608C47.7626 44.6414 47.8322 44.7382 47.8811 44.8457C47.93 44.9532 47.9573 45.0694 47.9613 45.1874V45.4818L46.4116 50.8281C46.3433 51.0809 46.191 51.303 45.9799 51.4579C45.7687 51.6127 45.5111 51.6912 45.2494 51.6804H17.9758L22.5472 36.1065L17.4334 37.6562L18.5957 34.092L23.7095 32.5424L30.1405 10.6925C30.2112 10.4411 30.3641 10.2206 30.5747 10.0661C30.7854 9.91168 31.0416 9.83215 31.3027 9.84019H38.1986C38.3166 9.83605 38.4343 9.85522 38.5449 9.8966C38.6556 9.93799 38.757 10.0008 38.8433 10.0814C38.9297 10.162 38.9993 10.2588 39.0482 10.3663C39.0971 10.4738 39.1243 10.5899 39.1283 10.708V11.0024L33.7046 29.4431L38.8184 27.8935L37.7337 31.6126L32.5424 33.0847Z" fill="#345D9D"/>
</g>
<defs>
<clipPath id="clip0_2070_126">
<rect width="64" height="64" fill="white"/>
</clipPath>
</defs>
</svg>
