<svg width="64" height="64" viewBox="0 0 64 64" fill="none" xmlns="http://www.w3.org/2000/svg">
<circle cx="32" cy="32" r="32" fill="#C4342B"/>
<path fill-rule="evenodd" clip-rule="evenodd" d="M19.2577 18.3297C19.3787 18.1958 19.5337 18.0971 19.7062 18.0441C19.8788 17.9911 20.0624 17.9858 20.2377 18.0287L41.3377 23.1947C41.4647 23.2257 41.5837 23.2817 41.6897 23.3577L45.9827 26.4877C46.1926 26.6409 46.3346 26.8698 46.3787 27.1259C46.4227 27.382 46.3654 27.6452 46.2187 27.8597L31.4487 49.4697C31.3446 49.6224 31.2003 49.7432 31.0317 49.8188C30.8631 49.8944 30.6768 49.9218 30.4936 49.898C30.3104 49.8742 30.1373 49.8 29.9937 49.6838C29.85 49.5676 29.7413 49.4139 29.6797 49.2397L19.0577 19.3357C18.9973 19.1657 18.984 18.9826 19.0192 18.8056C19.0544 18.6287 19.1369 18.4636 19.2577 18.3297ZM22.7397 23.7267L30.1137 44.4867L31.3267 33.7277L22.7397 23.7267ZM33.2997 34.0747L32.0677 45.0207L42.4977 29.7577L33.2997 34.0747ZM43.4387 27.1077L36.7157 30.2627L41.2227 25.4927L43.4387 27.1077ZM39.1927 24.7287L22.7877 20.7117L32.4057 31.9137L39.1927 24.7287Z" fill="white"/>
</svg>
