<svg width="64" height="64" viewBox="0 0 64 64" fill="none" xmlns="http://www.w3.org/2000/svg">
<circle cx="32" cy="32" r="32" fill="black"/>
<g clip-path="url(#clip0_2070_134)">
<path d="M44.5601 21.2933L40.3457 23.3958L19.9952 33.5458C19.9264 33.0319 19.8918 32.5141 19.8916 31.9958C19.8943 29.9276 20.4489 27.896 21.5002 26.1023C22.5515 24.3086 24.0631 22.8149 25.8854 21.7693C27.7076 20.7236 29.7772 20.1623 31.8892 20.1409C34.0011 20.1194 36.0822 20.6387 37.9261 21.6471L40.3383 20.4436L40.6982 20.2638C38.4884 18.6933 35.8783 17.7516 33.1562 17.5429C30.4341 17.3341 27.706 17.8664 25.2735 19.0809C22.841 20.2954 20.7988 22.1449 19.3727 24.4248C17.9465 26.7048 17.1918 29.3264 17.1921 32.0001C17.1921 32.3694 17.2064 32.7372 17.235 33.1036C17.2751 33.6224 17.1576 34.1412 16.8973 34.5948C16.637 35.0484 16.2454 35.4164 15.772 35.6527L14.5 36.2878V39.2501L18.2449 37.3811L19.4577 36.7749L20.6527 36.179L42.1064 25.4751L44.5171 24.273L49.5 21.7863V18.8254L44.5601 21.2933Z" fill="white"/>
<path d="M49.5 24.75L21.8714 38.525L19.4607 39.7299L14.5 42.2051V45.1645L19.4266 42.7068L23.6409 40.6043L44.0122 30.4398C44.081 30.9571 44.1157 31.4783 44.1158 32C44.1145 34.0705 43.5602 36.1047 42.5078 37.9006C41.4555 39.6966 39.9418 41.1917 38.1169 42.2377C36.292 43.2837 34.2195 43.8441 32.1051 43.8633C29.9907 43.8825 27.9079 43.3598 26.0635 42.3472L25.9154 42.424L23.3003 43.729C25.5096 45.2996 28.1192 46.2416 30.8409 46.4508C33.5626 46.6601 36.2904 46.1285 38.7228 44.9148C41.1553 43.7011 43.1978 41.8526 44.6246 39.5734C46.0514 37.2943 46.807 34.6733 46.8079 32C46.8079 31.6273 46.7931 31.2547 46.765 30.8864C46.7249 30.3678 46.8423 29.8491 47.1024 29.3956C47.3624 28.942 47.7535 28.5739 48.2265 28.3373L49.5 27.7022V24.75Z" fill="white"/>
</g>
<defs>
<clipPath id="clip0_2070_134">
<rect width="35" height="29" fill="white" transform="translate(14.5 17.5)"/>
</clipPath>
</defs>
</svg>
