<svg width="64" height="64" viewBox="0 0 64 64" fill="none" xmlns="http://www.w3.org/2000/svg">
<circle cx="32" cy="32" r="32" fill="#0058F0"/>
<path d="M30.2436 25.501C30.3836 26.371 31.0936 27.001 31.9936 27.001C32.8936 27.001 33.6136 26.371 33.7536 25.501L33.8736 24.741C34.1436 22.641 34.3436 20.611 34.4836 18.651C34.5133 18.3091 34.4704 17.9648 34.358 17.6406C34.2455 17.3164 34.0659 17.0196 33.8309 16.7695C33.5959 16.5194 33.3108 16.3217 32.9942 16.1893C32.6777 16.0568 32.3367 15.9927 31.9936 16.001C31.6488 15.9911 31.3058 16.0544 30.9873 16.1868C30.6687 16.3192 30.3819 16.5176 30.1456 16.769C29.9094 17.0203 29.7291 17.3189 29.6167 17.6451C29.5043 17.9712 29.4624 18.3175 29.4936 18.661C29.6687 20.9453 29.9188 23.2232 30.2436 25.491V25.501ZM25.9236 30.491C26.7736 30.821 27.6836 30.531 28.1336 29.741C28.3462 29.3638 28.4157 28.9226 28.3294 28.4984C28.243 28.0741 28.0067 27.6951 27.6636 27.431L27.0436 26.931C25.3791 25.6496 23.6784 24.4157 21.9436 23.231C21.6634 23.0235 21.3421 22.8782 21.0012 22.8049C20.6603 22.7315 20.3077 22.7318 19.967 22.8056C19.6262 22.8794 19.3051 23.0252 19.0251 23.233C18.7452 23.4409 18.5128 23.7061 18.3436 24.011C18.1681 24.3154 18.058 24.6531 18.0202 25.0024C17.9823 25.3517 18.0177 25.7051 18.124 26.04C18.2303 26.375 18.4052 26.6841 18.6376 26.9476C18.87 27.2112 19.1547 27.4235 19.4736 27.571C21.5917 28.6133 23.7428 29.5871 25.9236 30.491ZM45.6436 24.001C46.4036 25.331 45.8436 26.891 44.5136 27.551C42.3987 28.5928 40.2509 29.5666 38.0736 30.471C37.2236 30.801 36.3136 30.521 35.8636 29.731C35.651 29.3538 35.5815 28.9126 35.6679 28.4884C35.7542 28.0641 35.9906 27.6851 36.3336 27.421L36.9436 26.921C38.6836 25.591 40.3836 24.351 42.0436 23.221C42.3239 23.0135 42.6451 22.8682 42.986 22.7949C43.3269 22.7215 43.6795 22.7218 44.0203 22.7956C44.3611 22.8694 44.6822 23.0152 44.9621 23.223C45.2421 23.4309 45.4744 23.6961 45.6436 24.001ZM27.6536 36.591C27.9983 36.3283 28.2367 35.95 28.3249 35.5256C28.413 35.1013 28.3451 34.6593 28.1336 34.281C27.922 33.906 27.5796 33.6222 27.1719 33.4838C26.7642 33.3455 26.3197 33.3623 25.9236 33.531L25.1936 33.831C23.1936 34.681 21.2836 35.551 19.4636 36.451C19.1461 36.5986 18.8626 36.8105 18.6312 37.0734C18.3997 37.3362 18.2254 37.6442 18.1192 37.9779C18.013 38.3116 17.9772 38.6637 18.0141 39.012C18.051 39.3602 18.1598 39.697 18.3336 40.001C18.5011 40.3075 18.7321 40.5746 19.0113 40.7845C19.2904 40.9943 19.6112 41.1421 19.9521 41.2179C20.293 41.2936 20.6462 41.2956 20.9879 41.2237C21.3297 41.1518 21.6521 41.0077 21.9336 40.801C23.8844 39.4621 25.7921 38.0614 27.6536 36.601V36.591ZM35.8636 34.281C36.0736 33.9044 36.4159 33.6191 36.8242 33.4806C37.2326 33.342 37.6778 33.36 38.0736 33.531L38.8036 33.831C40.8036 34.681 42.7136 35.561 44.5236 36.461C44.8409 36.6076 45.1242 36.8185 45.3555 37.0804C45.5869 37.3423 45.7612 37.6495 45.8675 37.9824C45.9737 38.3153 46.0096 38.6667 45.9728 39.0142C45.936 39.3617 45.8273 39.6978 45.6536 40.001C45.4853 40.3067 45.2536 40.5728 44.974 40.7817C44.6945 40.9906 44.3736 41.1373 44.0327 41.2121C43.6919 41.2869 43.339 41.288 42.9977 41.2154C42.6564 41.1428 42.3345 40.9981 42.0536 40.791C40.1029 39.452 38.1953 38.0513 36.3336 36.591C35.9881 36.3265 35.75 35.9457 35.6636 35.5191C35.5772 35.0926 35.6483 34.6492 35.8636 34.271V34.281ZM33.7436 38.511C33.6853 38.0896 33.4755 37.7039 33.1534 37.426C32.8313 37.1481 32.419 36.997 31.9936 37.001C31.0936 37.001 30.3736 37.631 30.2336 38.501L30.1236 39.261C29.8436 41.361 29.6436 43.391 29.5036 45.351C29.474 45.6929 29.5168 46.0372 29.6293 46.3614C29.7417 46.6856 29.9213 46.9825 30.1563 47.2325C30.3913 47.4826 30.6764 47.6803 30.993 47.8128C31.3096 47.9452 31.6506 48.0093 31.9936 48.001C33.5136 48.001 34.5836 46.791 34.4736 45.341C34.302 43.0568 34.0553 40.7789 33.7336 38.511H33.7436Z" fill="#FFBB00"/>
</svg>
