<svg width="64" height="64" viewBox="0 0 64 64" fill="none" xmlns="http://www.w3.org/2000/svg">
<circle cx="32" cy="32" r="32" fill="#34454F"/>
<path d="M9 22H13.3716C17.4728 27.9324 21.5188 33.9026 25.6433 39.8176C25.6085 39.2188 25.5997 38.6201 25.6056 38.0213C25.6056 32.6789 25.6114 27.3395 25.6056 22H29.3231C29.3086 29.6938 29.3028 37.3848 29.3231 45.0786H24.9021C19.7022 37.5301 14.5197 29.97 9.32554 22.4186C9.22381 22.2761 9.11336 22.1366 9 22ZM31.3025 22H35.0143C34.9969 29.6938 35.0056 37.3848 35.0114 45.0786H31.3025C31.3142 37.3848 31.3113 29.6938 31.3025 22ZM37.0489 22H46.8908C48.6929 22.1453 50.5066 22.9098 51.6664 24.3282C52.7825 25.6827 53.1865 27.4906 53.1429 29.2113C53.1545 31.0251 52.7069 32.9754 51.3641 34.2805C50.4775 35.1786 49.2539 35.6059 48.0563 35.9024C50.3119 38.934 52.4366 42.0644 54.7183 45.0786H50.5386C47.7715 40.9599 45.0305 36.8209 42.2605 32.7022C43.5045 32.7051 44.7457 32.7167 45.9897 32.6993C46.8995 32.6702 47.8819 32.458 48.5417 31.7808C49.2771 31.0251 49.4573 29.9089 49.4224 28.8916C49.405 27.9121 49.0736 26.886 48.3121 26.2291C47.5477 25.5577 46.4984 25.299 45.5014 25.3106C43.926 25.3136 42.3506 25.3106 40.7752 25.3136C40.8043 31.9 40.72 38.4893 40.752 45.0786H37.0489C37.0664 37.3848 37.0606 29.6938 37.0489 22Z" fill="white"/>
<path d="M15.4149 22H23.597C23.5796 25.9966 23.5999 29.9932 23.5883 33.9898C20.859 29.9961 18.1733 25.9734 15.4149 22Z" fill="#FFCE00"/>
</svg>
