<svg width="64" height="64" viewBox="0 0 64 64" fill="none" xmlns="http://www.w3.org/2000/svg">
<circle cx="32" cy="32" r="32" fill="#3F125F"/>
<path d="M32.0372 14C35.0126 18.776 37.9934 23.5469 40.9715 28.3203C42.1712 30.2504 43.3789 32.1755 44.576 34.1056H19.4293C23.6337 27.4054 27.8363 20.7036 32.0372 14ZM16.1831 39.2863H47.8115C49.2077 41.5251 50.6038 43.7613 52 46C50.2057 45.9975 48.4141 45.9975 46.6198 45.9975C45.1413 46.0025 43.6629 45.9848 42.1845 45.9899C40.5813 45.9874 38.9808 45.9975 37.3776 45.9823C34.8268 45.9798 32.276 45.9899 29.7279 45.9747H24.2203C22.5455 45.9646 20.8733 45.9696 19.2011 45.9696C16.8016 45.9747 14.3995 45.957 12 45.9621C13.3908 43.736 14.787 41.5124 16.1831 39.2863Z" fill="white"/>
</svg>
